<?xml version="1.0" encoding="UTF-8"?>
<svg width="120px" height="120px" viewBox="0 0 120 120" version="1.1" xmlns="http://www.w3.org/2000/svg" xmlns:xlink="http://www.w3.org/1999/xlink">
    <!-- Generator: Sketch 51.2 (57519) - http://www.bohemiancoding.com/sketch -->
    <title>amex</title>
    <desc>Created with Sketch.</desc>
    <defs>
        <rect id="path-1" x="0" y="0" width="120" height="120" rx="28"></rect>
    </defs>
    <g id="master" stroke="none" stroke-width="1" fill="none" fill-rule="evenodd">
        <g id="payments" transform="translate(-958.000000, -2693.000000)">
            <g id="amex" transform="translate(958.000000, 2693.000000)">
                <mask id="mask-2" fill="white">
                    <use xlink:href="#path-1"></use>
                </mask>
                <use id="Mask" fill="#0095FF" xlink:href="#path-1"></use>
                <path d="M121.833333,66.0309211 L115.247507,66.0309211 C114.787746,66.0309211 114.362838,66.0534048 113.930342,66.4674549 C113.634106,66.5039098 113.491287,66.8357513 113.491287,67.3405223 C113.491287,67.7946358 113.804424,68.1489609 114.369397,68.2135897 C114.630734,68.4233443 115.02903,68.4587351 115.686562,68.6501234 L117.442783,68.6501234 C119.441781,68.5511678 120.724934,68.8613584 121.394278,69.5231909 C121.649709,69.7232303 121.735312,69.8414774 121.833333,69.9597246 L121.833333,66.0309211 Z M121.833333,75.1981291 C120.987696,76.5460325 119.339911,77.1649966 117.003728,77.3807977 L110.417902,77.3807977 L110.417902,73.888528 L117.003728,73.888528 C117.746159,74.0805859 118.21093,73.9942692 118.320893,73.888528 C118.733248,73.5019606 118.902376,73.1788154 118.759948,72.5789269 C118.902376,72.3672653 118.733248,72.0345775 118.320893,71.7058594 C118.224548,71.615573 117.85686,71.51581 117.442783,71.7058594 C113.981864,71.4060708 109.903914,71.615573 109.978847,66.9039886 C109.903914,64.9774317 111.245513,62.7813451 114.808452,62.9751851 L121.833333,62.9751851 L121.833333,59.9194491 L115.247507,59.9194491 C113.445927,59.9194491 112.033603,60.3792263 110.856957,61.2290503 L110.856957,59.9194491 L101.6368,59.9194491 C99.979864,59.9194491 98.1910662,60.2924759 97.2462497,61.2290503 L97.2462497,59.9194491 L80.1231022,59.9194491 L80.1231022,61.2290503 C78.9733501,60.1293851 76.6881521,59.9194491 75.7325516,59.9194491 L64.3171199,59.9194491 L64.3171199,61.2290503 C63.3371834,60.0695273 60.9544625,59.9194491 59.4875142,59.9194491 L46.7549173,59.9194491 L44.1205869,62.9751851 L41.4862565,59.9194491 L22.6068888,59.9194491 L22.6068888,80 L41.0472015,80 L44.1205869,76.944264 L46.7549173,80 L58.170349,80 L58.170349,75.1981291 L59.0484591,75.1981291 C60.7431629,75.3015979 62.5192213,75.2417401 63.8780648,74.7615954 L63.8780648,80 L73.5372762,80 L73.5372762,74.7615954 L73.9763313,74.7615954 C74.4754372,74.7585403 74.5321059,74.7819629 74.4153864,75.1981291 L74.4153864,80 L102.953966,80 C104.775617,79.9891562 106.662816,79.532849 107.783571,78.6903989 L107.783571,80 L116.564673,80 C118.605414,79.9891562 120.438581,79.7293387 121.833333,79.1269326 L121.833333,75.1981291 Z M108.222626,69.9597246 C108.735357,70.4766513 109.100736,71.3524305 109.100736,73.0154606 C109.100736,75.9341981 107.131578,77.3807977 103.393021,77.3807977 L96.8071947,77.3807977 L96.8071947,74.3250617 L103.393021,74.3250617 C104.237264,74.2916776 104.708236,74.2052292 105.149241,73.888528 C105.244154,73.712169 105.416903,73.3885303 105.588296,73.0154606 C105.416903,72.5757411 105.230016,72.2425454 105.149241,72.1423931 C104.721932,71.8229012 104.352577,71.7229859 103.832076,71.7058594 C100.468602,71.6130791 96.3681396,71.8229012 96.3681396,67.3405223 C96.3681396,65.1746247 97.7032972,62.9751851 101.197745,62.9751851 L108.222626,62.9751851 L108.222626,66.0309211 L102.075855,66.0309211 C101.333671,66.0412813 100.919693,66.0647396 100.75869,66.4674549 C100.184075,66.5347759 100.041811,66.8810041 99.8805801,67.3405223 C100.041811,67.8814602 100.367427,68.2511468 100.75869,68.2135897 C101.17727,68.5374258 101.574017,68.574351 102.075855,68.6501234 L104.271131,68.6501234 C105.955914,68.6699222 107.260587,68.9931264 108.222626,69.9597246 Z M76.1716066,68.2135897 C75.8779681,68.6279685 75.3092297,68.6501234 74.8544414,68.6501234 L70.4638908,68.6501234 L70.4638908,65.5943874 L74.8544414,65.5943874 C75.3092297,65.5943874 75.921784,65.6066957 76.1716066,66.0309211 C76.7833511,66.060461 77.0497168,66.4818145 77.0497168,66.9039886 C77.0497168,67.6461779 76.7833511,68.1151235 76.1716066,68.2135897 Z M78.366882,70.832792 C79.3044961,70.969036 79.9394986,71.4759822 80.1231022,71.7058594 C80.7299491,72.5989093 80.8012878,73.2552895 81.0012123,74.3250617 L81.0012123,77.3807977 L77.4887718,77.3807977 L77.4887718,75.6346629 C77.3118562,74.7118367 77.3964058,73.4286156 76.6106617,72.5789269 C76.2378124,72.2427003 75.4605727,72.1193304 73.9763313,72.1423931 L70.4638908,72.1423931 L70.4638908,77.3807977 L66.9514503,77.3807977 L66.9514503,62.9751851 L74.8544414,62.9751851 C76.7750545,62.9751851 78.0617934,63.0520741 79.2449921,63.8482526 C80.3085223,64.3114032 81.0012123,65.2106137 81.0012123,66.9039886 C81.000772,69.153239 79.4462927,70.3265566 78.366882,70.832792 Z M83.1964877,62.9751851 L94.6119193,62.9751851 L94.6119193,66.0309211 L86.7089282,66.0309211 L86.7089282,68.6501234 L94.6119193,68.6501234 L94.6119193,71.7058594 L86.7089282,71.7058594 L86.7089282,74.3250617 L94.6119193,74.3250617 L94.6119193,77.3807977 L83.1964877,77.3807977 L83.1964877,62.9751851 L83.1964877,62.9751851 Z M59.4875142,69.0866571 L55.0969635,69.0866571 L55.0969635,65.5943874 L59.4875142,65.5943874 C60.8211656,65.5943874 61.6827895,66.0765646 61.6827895,67.3405223 C61.6827895,68.4618117 60.8610797,69.0866571 59.4875142,69.0866571 Z M51.584523,75.6346629 L46.3158623,69.9597246 L51.584523,64.2847863 L51.584523,75.6346629 Z M37.973816,73.888528 L29.1927147,73.888528 L29.1927147,71.2693257 L37.0957059,71.2693257 L37.0957059,68.2135897 L29.1927147,68.2135897 L29.1927147,65.5943874 L37.973816,65.5943874 L41.9253116,69.5231909 L37.973816,73.888528 Z M65.19523,67.777056 C65.19523,71.7227221 62.1902921,72.5489532 59.0484591,72.5789269 L54.6579085,72.5789269 L54.6579085,77.3807977 L48.0720825,77.3807977 L43.6815319,72.5789269 L39.2909812,77.3807977 L25.6802742,77.3807977 L25.6802742,62.9751851 L39.7300363,62.9751851 L43.6815319,67.777056 L48.0720825,62.9751851 L59.4875142,62.9751851 C62.1059107,62.9751851 65.19523,63.7314776 65.19523,67.777056 Z M8.41543167,48.9133429 L5.78110129,43.2384046 L3.58582597,48.9133429 L8.41543167,48.9133429 Z M60.2239293,46.2941406 C59.9211028,46.7215453 59.3623054,46.7306743 58.9067641,46.7306743 L54.5162134,46.7306743 L54.5162134,43.6749383 L58.9067641,43.6749383 C59.3488561,43.6749383 59.9740323,43.7006656 60.2239293,44.111472 C60.8261115,44.1235057 61.1020394,44.5500805 61.1020394,44.9845394 C61.1020394,45.7405893 60.8395608,46.224428 60.2239293,46.2941406 Z M90.9577838,48.9133429 L88.3234534,43.2384046 L86.1281781,48.9133429 L90.9577838,48.9133429 Z M34.7587355,55.4613486 L31.246295,55.4613486 L31.246295,44.111472 L25.9776343,55.4613486 L22.9042488,55.4613486 L18.0746431,44.111472 L18.0746431,55.4613486 L10.610707,55.4613486 L9.2935418,52.4056126 L2.26866077,52.4056126 L0.95149558,55.4613486 L-3,55.4613486 L3.1467709,41.055736 L8.41543167,41.055736 L14.5622026,54.5882811 L14.5622026,41.055736 L20.2699184,41.055736 L24.6604691,50.6594777 L29.0510197,41.055736 L34.7587355,41.055736 L34.7587355,55.4613486 L34.7587355,55.4613486 Z M48.8084976,55.4613486 L37.3930659,55.4613486 L37.3930659,41.055736 L48.8084976,41.055736 L48.8084976,44.111472 L40.9055064,44.111472 L40.9055064,46.7306743 L48.8084976,46.7306743 L48.8084976,49.7864103 L40.9055064,49.7864103 L40.9055064,52.4056126 L48.8084976,52.4056126 L48.8084976,55.4613486 L48.8084976,55.4613486 Z M65.49259,44.9845394 C65.49259,47.2322391 63.9354776,48.418875 62.8582597,48.9133429 C63.7933602,49.0619439 64.447012,49.5685779 64.6144799,49.7864103 C65.2520497,50.7048112 65.3372319,51.3448385 65.49259,52.8421463 L65.49259,55.4613486 L61.9801495,55.4613486 L61.9801495,53.7152137 C61.7962134,52.7778394 61.8805129,51.5312416 61.1020394,50.6594777 C60.732981,50.3315705 59.9539834,50.2216405 58.9067641,50.222944 L54.9552685,50.222944 L54.9552685,55.4613486 L51.442828,55.4613486 L51.442828,41.055736 L59.3458191,41.055736 C61.2749691,41.055736 62.5919826,41.1022281 63.7363698,41.9288034 C64.8292284,42.389235 65.49259,43.328637 65.49259,44.9845394 Z M70.7612508,55.4613486 L67.2488103,55.4613486 L67.2488103,41.055736 L70.7612508,41.055736 L70.7612508,55.4613486 Z M112.032427,55.4613486 L107.202821,55.4613486 L100.616995,44.5480057 L100.616995,55.4613486 L93.5921142,55.4613486 L91.8358939,52.4056126 L84.8110129,52.4056126 L83.4938477,55.4613486 L79.5423521,55.4613486 C77.7346615,55.4613486 75.5916279,55.0911494 74.2736913,53.7152137 C73.1541854,52.6448806 72.5174711,50.9881091 72.5174711,48.4768091 C72.5174711,46.2320062 72.8980056,44.2789017 74.2736913,42.8018709 C75.5204425,41.5858333 77.2833809,41.055736 79.5423521,41.055736 L83.0547926,41.055736 L83.0547926,44.111472 L79.5423521,44.111472 C78.4829876,44.1424668 77.7654207,44.3293044 76.9080217,44.9845394 C76.4805672,45.602407 76.0732283,46.7490684 76.0299116,48.4768091 C76.0732283,49.8023422 76.3834562,50.9151121 76.9080217,51.5325451 C77.5668045,52.2121126 78.5409906,52.385046 79.5423521,52.4056126 L80.8595173,52.4056126 L86.1281781,41.055736 L90.9577838,41.055736 L97.1045547,54.5882811 L97.1045547,41.055736 L102.373215,41.055736 L108.519986,51.0960114 L108.519986,41.055736 L112.032427,41.055736 L112.032427,55.4613486 Z M-3,58.0805509 L3.1467709,58.0805509 L4.46393609,55.0248149 L7.09826648,55.0248149 L8.41543167,58.0805509 L20.2699184,58.0805509 L20.2699184,55.4613486 L21.5870836,58.0805509 L27.2947994,58.0805509 L28.6119646,55.4613486 L28.6119646,58.0805509 L57.5895989,58.0805509 L57.5895989,52.8421463 L58.028654,52.8421463 C58.5330131,52.8368812 58.6481217,52.8729067 58.467709,53.7152137 L58.467709,58.0805509 L73.8346363,58.0805509 L73.8346363,56.7709497 C74.9061124,57.4911209 76.7935419,58.0701338 79.103297,58.0805509 L85.689123,58.0805509 L87.0062882,55.0248149 L90.0796737,55.0248149 L91.3968388,58.0805509 L103.690381,58.0805509 L103.690381,55.0248149 L105.446601,58.0805509 L115.105812,58.0805509 L115.105812,38 L105.446601,38 L105.446601,40.1826686 L104.129436,38 L94.0311692,38 L94.0311692,40.1826686 L92.714004,38 L79.5423521,38 C77.2588091,38 75.2861465,38.3094724 73.8346363,39.3096011 L73.8346363,38 L64.6144799,38 L64.6144799,39.3096011 C63.4268858,38.2829958 62.0451433,38 60.6629843,38 L26.8557444,38 L24.221414,43.2384046 L22.0261387,38 L11.4888171,38 L11.4888171,40.1826686 L10.1716519,38 L1.39055064,38 L-3,47.6037417 L-3,58.0805509 L-3,58.0805509 Z" id="Shape" fill="#FFFFFF" fill-rule="nonzero" mask="url(#mask-2)"></path>
            </g>
        </g>
    </g>
</svg>