<svg width="120" height="120" viewBox="0 0 120 120" fill="none" xmlns="http://www.w3.org/2000/svg">
<path d="M0.5 88V32.0001C0.5 14.6031 14.603 0.500122 32 0.500122H88C105.397 0.500122 119.5 14.6032 119.5 32.0001V88C119.5 105.397 105.397 119.5 88 119.5H32C14.603 119.5 0.5 105.397 0.5 88Z" fill="white" stroke="#EEEEEE" stroke-miterlimit="20"/>
<path d="M23 65.49C23 63.56 24.577 61.991 26.516 61.991H37.222L31.891 67.324H53.225L63.89 54.885H87L71.584 71.835C70.28 73.268 67.66 74.43 65.711 74.43H26.511C24.578 74.43 23.008 72.867 23 70.933V65.49Z" fill="#00549D"/>
<path d="M97.6646 56.702C97.6646 58.642 96.1016 60.215 94.1536 60.215H81.6656L86.9976 54.885H63.8876L54.9986 67.324H31.8906L47.4156 48.7C48.6606 47.209 51.2366 46 53.1586 46H94.1756C96.1036 46 97.6666 47.575 97.6666 49.513V56.7L97.6646 56.702Z" fill="#FFD800"/>
</svg>
