<?xml version="1.0" encoding="UTF-8"?>
<svg width="120px" height="120px" viewBox="0 0 120 120" version="1.1" xmlns="http://www.w3.org/2000/svg" xmlns:xlink="http://www.w3.org/1999/xlink">
    <!-- Generator: Sketch 51.2 (57519) - http://www.bohemiancoding.com/sketch -->
    <title>belfius copy</title>
    <desc>Created with Sketch.</desc>
    <defs></defs>
    <g id="master" stroke="none" stroke-width="1" fill="none" fill-rule="evenodd">
        <g id="payments" transform="translate(-110.000000, -3413.000000)">
            <g id="belfius-copy" transform="translate(110.000000, 3413.000000)">
                <rect id="Rectangle-15" fill="#D50043" x="0" y="0" width="120" height="120" rx="28"></rect>
                <path d="M34,42.3980303 C34,37.7599262 37.7606301,34 42.3980303,34 L77.6019697,34 C82.2400738,34 86,37.7606301 86,42.3980303 L86,86 L42.3980303,86 C37.7599262,86 34,82.2393699 34,77.6019697 L34,42.3980303 Z M44.6363636,52.9090909 C44.6363636,54.863207 46.2279137,56.4545455 48.1911901,56.4545455 L71.8088099,56.4545455 C73.7763087,56.4545455 75.3636364,54.8671914 75.3636364,52.9090909 C75.3636364,50.9549748 73.7720863,49.3636364 71.8088099,49.3636364 L48.1911901,49.3636364 C46.2236913,49.3636364 44.6363636,50.9509904 44.6363636,52.9090909 Z M44.6363636,67.0909091 C44.6363636,69.0450252 46.2279137,70.6363636 48.1911901,70.6363636 L71.8088099,70.6363636 C73.7763087,70.6363636 75.3636364,69.0490096 75.3636364,67.0909091 C75.3636364,65.136793 73.7720863,63.5454545 71.8088099,63.5454545 L48.1911901,63.5454545 C46.2236913,63.5454545 44.6363636,65.1328086 44.6363636,67.0909091 Z" id="Combined-Shape" fill="#FFFFFF"></path>
            </g>
        </g>
    </g>
</svg>