<?xml version="1.0" encoding="UTF-8"?>
<svg width="121px" height="121px" viewBox="0 0 121 121" version="1.1" xmlns="http://www.w3.org/2000/svg" xmlns:xlink="http://www.w3.org/1999/xlink">
    <!-- Generator: Sketch 51.2 (57519) - http://www.bohemiancoding.com/sketch -->
    <title>Group 43 Copy</title>
    <desc>Created with Sketch.</desc>
    <defs></defs>
    <g id="assets" stroke="none" stroke-width="1" fill="none" fill-rule="evenodd">
        <g id="Group-43-Copy" transform="translate(0.852814, 0.852814)">
            <rect id="Rectangle-15" fill="#DE378C" transform="translate(60.000000, 60.000000) rotate(-360.000000) translate(-60.000000, -60.000000) " x="0" y="0" width="120" height="120" rx="28"></rect>
            <g id="eps-Logo-RGB-Copy" transform="translate(60.011755, 58.125000) rotate(-360.000000) translate(-60.011755, -58.125000) translate(37.500000, 22.500000)" fill="#FFFFFF">
                <path d="M5.99238,52.4822291 C5.99238,52.4822291 5.46642,49.9453964 5.46642,48.2751927 C5.46642,46.6048036 5.9643,44.0420073 5.9643,44.0420073 C7.79724,36.3886691 14.51412,30.6896509 22.50018,30.6896509 C31.89258,30.6896509 39.6,38.5562618 39.6,48.23328 L39.6,52.4890909 L14.6457,52.4890909 C16.11936,55.4563636 19.09962,57.1254545 22.53654,57.1254545 L44.96922,57.1254545 L45,32.0299309 C45,28.2883855 42.02892,25.2272727 38.39742,25.2272727 L6.60258,25.2272727 C2.97126,25.2272727 0,28.1956582 0,31.9372036 L0,64.6955236 C0,68.4370691 2.97126,71.5909091 6.60258,71.5909091 L38.39742,71.5909091 C41.6565,71.5909091 44.37504,69.18 44.9001,66.0272727 L22.53654,66.0272727 C14.53734,66.0272727 7.81218,60.1544836 5.99238,52.4822291 Z" id="Fill-4"></path>
                <path d="M22.1589118,38.1818182 C18.7526241,38.1818182 15.7902999,40.5655716 14.3181818,43.6363636 L30,43.6363636 C28.5278819,40.5655716 25.5655578,38.1818182 22.1589118,38.1818182" id="Fill-5"></path>
                <path d="M36.1363636,14.6297566 C36.1363636,6.54992676 29.7241912,0 21.8145686,0 C14.0359528,0 7.70950749,6.33570659 7.50172218,14.2303662 C7.49832173,14.2637268 7.50100629,14.2961504 7.50100629,14.3304481 L7.50100629,18.726928 C7.50100629,19.2528264 7.90995499,19.7727273 8.42467554,19.7727273 L13.6937603,19.7727273 C14.2084808,19.7727273 14.6598456,19.2528264 14.6598456,18.726928 L14.6598456,14.6297566 C14.6598456,10.5949957 17.8687954,7.31234813 21.818685,7.31234813 C25.7685746,7.31234813 28.9775243,10.5949957 28.9775243,14.6297566 L28.9775243,18.726928 C28.9775243,19.2528264 29.3950636,19.7727273 29.9097842,19.7727273 L35.1790478,19.7727273 C35.6937684,19.7727273 36.1363636,19.2528264 36.1363636,18.726928 L36.1363636,14.6297566" id="Fill-6"></path>
            </g>
        </g>
    </g>
</svg>