<?xml version="1.0" encoding="UTF-8"?>
<svg width="120px" height="120px" viewBox="0 0 120 120" version="1.1" xmlns="http://www.w3.org/2000/svg" xmlns:xlink="http://www.w3.org/1999/xlink">
    <!-- Generator: Sketch 51.2 (57519) - http://www.bohemiancoding.com/sketch -->
    <title>giropay copy 2</title>
    <desc>Created with Sketch.</desc>
    <defs></defs>
    <g id="master" stroke="none" stroke-width="1" fill="none" fill-rule="evenodd">
        <g id="payments" transform="translate(-1065.000000, -3722.000000)">
            <g id="giropay-copy-2" transform="translate(1065.000000, 3722.000000)">
                <rect id="Rectangle-15" fill="#000268" x="0" y="0" width="120" height="120" rx="28"></rect>
                <path d="M16.8,47.9298462 C16.8,45.3156923 18.8126897,43.2 21.2971035,43.2 L62.4,43.2 L62.4,79.2 L21.2971035,79.2 C18.8126897,79.2 16.8,77.0843077 16.8,74.4701538 L16.8,47.9298462 Z M65.1289431,70.5793675 L65.1183131,70.5793675 L65.1183131,56.0000753 L68.3604429,56.0000753 L68.3604429,57.8781226 L68.4029626,57.8781226 C69.1151682,56.4234501 70.5927289,55.7612485 72.1978489,55.7612485 C75.0147813,55.7612485 76.5561217,58.4860455 76.5561217,61.0045829 C76.5561217,64.0767644 74.9403718,66.6278691 71.9108407,66.6278691 C70.6883983,66.6278691 69.3596567,66.171927 68.6899709,64.9343698 L68.6474511,64.9343698 L68.6474511,70.5793675 L65.1289431,70.5793675 Z M72.9313143,61.0805733 C72.9313143,59.7018911 72.1659591,58.507757 70.8053276,58.4969012 C69.5191056,58.4969012 68.658081,59.6584681 68.658081,61.2108425 C68.658081,62.7306495 69.6360349,63.8705048 70.8053276,63.8705048 C72.1340693,63.8705048 72.9313143,62.7415053 72.9313143,61.0805733 Z M88.461647,66.3890423 L88.461647,66.3781865 L85.2514073,66.3781865 C85.2301474,65.8136868 85.176998,65.2817543 85.176998,64.738966 L85.1344782,64.738966 C84.3372329,66.0416578 83.3592789,66.6170134 81.9136082,66.6170134 C79.9045507,66.6170134 78.108092,65.6074272 78.108092,63.3494281 C78.108092,60.1795448 81.4884105,59.799593 83.3592789,59.799593 C83.9226655,59.799593 84.5498318,59.8647276 84.9962887,59.940718 C84.9750288,58.5186128 83.9332958,58.138661 82.6683337,58.138661 C81.5309303,58.138661 80.4041576,58.3557763 79.4262037,58.9202761 L79.3624241,56.4885847 C80.6061263,55.967508 81.9242378,55.7503928 83.4230586,55.7503928 C86.0273927,55.7503928 88.2703081,56.8902481 88.2703081,60.0601314 L88.2703081,63.9356394 C88.2703081,64.7498218 88.3021982,65.5748599 88.461647,66.3890423 Z M81.3608519,63.0888897 C81.3608519,63.816226 81.9880175,64.2287451 82.8065226,64.2178893 C84.1352644,64.2178893 84.9750288,62.9803321 84.9750288,61.7644865 C84.5179416,61.7427749 84.0183347,61.7102076 83.4868382,61.7102076 C82.2962854,61.7102076 81.3608519,62.0901594 81.3608519,63.0888897 Z M90.0348771,70.5793675 L90.2793661,67.8545706 C90.7577131,68.0065512 91.1829101,68.0716858 91.6718874,68.0716858 C92.5329117,68.0716858 93.1919675,67.5614649 93.4470861,66.6387248 L89.322672,56.0000753 L93.1069279,56.0000753 L95.2966946,62.7849284 L95.3285841,62.7849284 L97.422681,56.0000753 L100.941189,56.0000753 L97.2100828,65.6725618 C96.2108689,68.2779454 95.4455138,70.8181944 92.2246438,70.8181944 C91.4805485,70.8181944 90.7577131,70.742204 90.0348771,70.5793675 Z" id="Combined-Shape" fill="#FFFFFF"></path>
                <path d="M32.1442593,55.9892196 L32.1442593,65.1731966 C32.1442593,69.4395122 30.113942,70.8181944 26.0107877,70.8181944 C24.3312582,70.8181944 22.9387369,70.4599541 22.120232,70.1559927 L22.3009409,67.322638 C23.3745642,67.8654263 24.2781085,68.1802435 25.7450393,68.1802435 C27.7753566,68.1802435 28.8702398,67.2032247 28.8702398,65.1731966 L28.8702398,64.6086969 L28.8277201,64.6086969 C27.9879553,65.8245425 26.8186627,66.3890423 25.4048815,66.3890423 C22.6198389,66.3890423 20.8765298,64.2287451 20.8765298,61.1565636 C20.8765298,58.0626707 22.3009409,55.7503928 25.4686611,55.7503928 C26.9674817,55.7503928 28.1792941,56.5862866 28.9233895,57.8672669 L28.9552793,57.8672669 L28.9552793,55.9892196 L32.1442593,55.9892196 Z M24.5013371,61.1022848 C24.5013371,62.7197938 25.4367713,63.631678 26.4997646,63.631678 C27.7434669,63.631678 28.7426806,62.5569573 28.7426806,60.9611599 C28.7426806,59.799593 28.0836247,58.507757 26.4997646,58.507757 C25.1816529,58.507757 24.5013371,59.6801796 24.5013371,61.1022848 Z" id="Combined-Shape" fill="#FF0208"></path>
                <polygon id="Shape" fill="#FF0208" points="38.0863922 51.6577694 34.5678842 51.6577694 34.5678842 54.2957202 38.0863922 54.2957202"></polygon>
                <polygon id="Shape" fill="#FF0208" points="34.5678842 66.3890423 38.0863922 66.3890423 38.0863922 55.9892196 34.5678842 55.9892196"></polygon>
                <path d="M47.876561,55.8698061 C47.5257732,55.8155273 47.0899459,55.7503928 46.6860084,55.7503928 C45.1659279,55.7503928 44.2836435,56.5862866 43.6777372,57.9106899 L43.6352175,57.9106899 L43.6352175,56.0000753 L40.4356075,56.0000753 L40.4356075,66.3998981 L43.9541155,66.3998981 L43.9541155,62.014169 C43.9541155,59.9732853 44.8789197,58.7574396 46.5159295,58.7574396 C46.9304969,58.7574396 47.3131745,58.7574396 47.7064821,58.876853 L47.876561,55.8698061 Z" id="Shape" fill="#FF0208"></path>
                <path d="M53.9356231,66.6278691 C50.5659341,66.6278691 48.0147501,64.6304084 48.0147501,61.1999867 C48.0147501,57.7478535 50.5765641,55.7503928 53.9356231,55.7503928 C57.2946821,55.7503928 59.8564961,57.7478535 59.8564961,61.1999867 C59.8564961,64.6304084 57.2946821,66.6278691 53.9356231,66.6278691 Z M53.9356231,64.1093317 C55.551373,64.1093317 56.2210588,62.7306495 56.2210588,61.1999867 C56.2210588,59.6476123 55.5620029,58.2689302 53.9356231,58.2689302 C52.3092433,58.2689302 51.6501874,59.6476123 51.6501874,61.1999867 C51.6501874,62.7306495 52.3092433,64.1093317 53.9356231,64.1093317 Z" id="Combined-Shape" fill="#FF0208"></path>
            </g>
        </g>
    </g>
</svg>