<?xml version="1.0" encoding="UTF-8"?>
<svg width="120px" height="120px" viewBox="0 0 120 120" version="1.1" xmlns="http://www.w3.org/2000/svg" xmlns:xlink="http://www.w3.org/1999/xlink">
    <!-- Generator: Sketch 51.2 (57519) - http://www.bohemiancoding.com/sketch -->
    <title>ideal copy</title>
    <desc>Created with Sketch.</desc>
    <defs></defs>
    <g id="master" stroke="none" stroke-width="1" fill="none" fill-rule="evenodd">
        <g id="payments" transform="translate(-960.000000, -3053.000000)">
            <g id="ideal-copy" transform="translate(960.000000, 3053.000000)">
                <g id="Group-4" fill="#FF6EB6">
                    <rect id="Rectangle-15" x="0" y="0" width="120" height="120" rx="28"></rect>
                </g>
                <g id="Group-20" transform="translate(36.000000, 37.200000)">
                    <path d="M1.08042009,-1.13994134 C11.2660909,-1.1366243 18.9053443,-1.13412931 23.9981806,-1.13245637 C27.4995065,-1.13130442 27.4995065,-1.13130442 29.7276266,-1.13056349 C31.3191489,-1.13002808 31.3191489,-1.13002808 31.6564371,-1.12974696 C38.3655791,-1.02127747 44.0711958,0.905669845 48.1669221,4.48735649 C50.5086345,6.53527029 52.315072,9.10592908 53.5329733,12.118139 C54.7940312,15.2373175 55.4293377,18.8520471 55.4293377,22.8600586 C55.4293377,31.2658405 52.9850532,37.637858 48.1222002,41.7089787 C44.1432045,45.0401203 38.5952185,46.7578948 31.6370387,46.8600586 L-0.119970703,46.8600586 L-0.119970703,-1.14033226 L1.08042009,-1.13994134 Z" id="Fill-4-Copy-2" stroke="#FFFFFF" stroke-width="2.4" fill="#FFFFFF"></path>
                    <polygon id="Fill-1" fill="#0A0B09" points="7.17984298 39.3623909 15.5842686 39.3623909 15.5842686 25.630389 7.17984298 25.630389"></polygon>
                    <path d="M16.218781,18.7647723 C16.218781,21.3500095 14.0886694,23.4469924 11.4614132,23.4469924 C8.8342438,23.4469924 6.70404545,21.3500095 6.70404545,18.7647723 C6.70404545,16.1795351 8.8342438,14.0834915 11.4614132,14.0834915 C14.0886694,14.0834915 16.218781,16.1795351 16.218781,18.7647723" id="Fill-2" fill="#0A0B09"></path>
                    <path d="M30.9330124,3.29066414 C36.7769132,3.29066414 41.647438,4.84867173 45.0181116,7.79629981 C48.8283967,11.1283491 50.7603967,16.1766319 50.7603967,22.8010247 C50.7603967,35.9294118 44.274781,42.3113852 30.9330124,42.3113852 C29.8961157,42.3113852 7.05349587,42.3113852 4.38719008,42.3113852 C4.38719008,39.6340987 4.38719008,5.96786528 4.38719008,3.29066414 C7.05349587,3.29066414 29.8961157,3.29066414 30.9330124,3.29066414 Z M31.5035702,0.302049336 L1.35,0.302049336 L1.35,45.3 L31.5035702,45.3 L31.5035702,45.2914611 C38.0901942,45.2031689 43.3080868,43.593074 47.0109421,40.493112 C51.5142273,36.7230171 53.7975868,30.7704649 53.7975868,22.8010247 C53.7975868,18.9914801 53.1970041,15.5743833 52.0125868,12.6447723 C50.8794545,9.84222011 49.2049215,7.45935484 47.0356736,5.56226755 C43.215062,2.22116698 37.8519917,0.41459203 31.5035702,0.311954459 C31.5035702,0.31186907 31.5035702,0.302049336 31.5035702,0.302049336 Z" id="Fill-4" fill="#0A0B09"></path>
                    <path d="M30.9330124,3.29066414 C36.7769132,3.29066414 41.647438,4.84867173 45.0181116,7.79629981 C48.8283967,11.1283491 50.7603967,16.1766319 50.7603967,22.8010247 C50.7603967,35.9294118 44.274781,42.3113852 30.9330124,42.3113852 C29.8961157,42.3113852 7.05349587,42.3113852 4.38719008,42.3113852 C4.38719008,39.6340987 4.38719008,5.96786528 4.38719008,3.29066414 C7.05349587,3.29066414 29.8961157,3.29066414 30.9330124,3.29066414 Z M31.5035702,0.302049336 L1.35,0.302049336 L1.35,45.3 L31.5035702,45.3 L31.5035702,45.2914611 C38.0901942,45.2031689 43.3080868,43.593074 47.0109421,40.493112 C51.5142273,36.7230171 53.7975868,30.7704649 53.7975868,22.8010247 C53.7975868,18.9914801 53.1970041,15.5743833 52.0125868,12.6447723 C50.8794545,9.84222011 49.2049215,7.45935484 47.0356736,5.56226755 C43.215062,2.22116698 37.8519917,0.41459203 31.5035702,0.311954459 C31.5035702,0.31186907 31.5035702,0.302049336 31.5035702,0.302049336 Z" id="Fill-4-Copy" fill="#0A0B09"></path>
                    <path d="M30.1034256,39.3777609 L19.4429752,39.3777609 L19.4429752,6.9290038 L30.1034256,6.9290038 L29.673186,6.9290038 C38.5636488,6.9290038 48.0269256,10.381537 48.0269256,23.1960342 C48.0269256,36.7432543 38.5636488,39.3777609 29.673186,39.3777609 L30.1034256,39.3777609" id="Fill-6" fill="#CD0067"></path>
                    <path d="M19.2054669,16.628852 L19.2054669,21.7895066 L20.4041157,21.7895066 C20.852405,21.7895066 21.1759959,21.7647438 21.3748884,21.7151328 C21.635219,21.6513472 21.8512066,21.5432448 22.0230248,21.3909108 C22.1946694,21.2385769 22.3349008,20.9878748 22.4433719,20.6388899 C22.551843,20.2899051 22.6060785,19.814203 22.6060785,19.2118691 C22.6060785,18.6095351 22.551843,18.1471537 22.4433719,17.8246395 C22.3349008,17.502296 22.1830413,17.25074 21.9877934,17.0700569 C21.7925455,16.8892884 21.5447975,16.7670968 21.2447231,16.7032258 C21.0204917,16.6537002 20.5812273,16.628852 19.926843,16.628852 L19.2054669,16.628852 Z M17.605562,15.3053226 L20.5324587,15.3053226 C21.1925702,15.3053226 21.6957025,15.355019 22.0420289,15.4544118 C22.5072397,15.5893264 22.9058058,15.8290133 23.2376405,16.1734725 C23.5694752,16.5178463 23.8219091,16.9394972 23.9951157,17.4383397 C24.1682355,17.9371822 24.2548388,18.5523245 24.2548388,19.2836812 C24.2548388,19.9264042 24.1736157,20.4802372 24.011343,20.945351 C23.8129711,21.5135294 23.5298182,21.9732638 23.1619711,22.3248102 C22.8841983,22.5911385 22.509062,22.7988046 22.036562,22.9478937 C21.6830331,23.0580455 21.2106198,23.1130361 20.619062,23.1130361 L17.605562,23.1130361 L17.605562,15.3053226 Z" id="Fill-7" fill="#FFFFFE"></path>
                    <polyline id="Fill-10" fill="#FFFFFE" points="26.0650909 23.1130361 26.0650909 15.3053226 31.938843 15.3053226 31.938843 16.628852 27.6650826 16.628852 27.6650826 18.3579791 31.6405041 18.3579791 31.6405041 19.6815085 27.6650826 19.6815085 27.6650826 21.7895066 32.0907025 21.7895066 32.0907025 23.1130361 26.0650909 23.1130361"></polyline>
                    <path d="M38.1010413,20.017685 L37.0073058,17.1251328 L35.9355248,20.017685 L38.1010413,20.017685 Z M41.0505,23.1130361 L39.3075868,23.1130361 L38.6151942,21.3412144 L35.4452355,21.3412144 L34.7885083,23.1130361 L33.0887231,23.1130361 L36.1721653,15.3053226 L37.8774174,15.3053226 L41.0505,23.1130361 Z" id="Fill-12" fill="#FFFFFE"></path>
                    <polyline id="Fill-15" fill="#FFFFFE" points="42.3889463 23.1130361 42.3889463 15.3693643 43.988938 15.3693643 43.988938 21.7895066 47.9752066 21.7895066 47.9752066 23.1130361 42.3889463 23.1130361"></polyline>
                </g>
            </g>
        </g>
    </g>
</svg>