<?xml version="1.0" encoding="UTF-8"?>
<svg width="120px" height="120px" viewBox="0 0 120 120" version="1.1" xmlns="http://www.w3.org/2000/svg" xmlns:xlink="http://www.w3.org/1999/xlink">
    <!-- Generator: Sketch 51.2 (57519) - http://www.bohemiancoding.com/sketch -->
    <title>ing copy</title>
    <desc>Created with Sketch.</desc>
    <defs>
        <rect id="path-1" x="0" y="0" width="120" height="120" rx="33.6"></rect>
    </defs>
    <g id="master" stroke="none" stroke-width="1" fill="none" fill-rule="evenodd">
        <g id="payments" transform="translate(-535.000000, -3233.000000)">
            <g id="ing-copy" transform="translate(535.000000, 3233.000000)">
                <mask id="mask-2" fill="white">
                    <use xlink:href="#path-1"></use>
                </mask>
                <use id="Mask" fill="#FF5300" xlink:href="#path-1"></use>
                <g id="logo" mask="url(#mask-2)" fill="#FFFFFF">
                    <g transform="translate(-9.600000, 19.200000)" id="Fill-4-Copy">
                        <path d="M45.9355244,141.860465 C43.1943122,141.860465 43.9740881,146.339126 43.1943122,148.37401 C42.8014252,148.779709 42.3965415,149.591107 42.8014252,150 L48.66474,150 C48.66474,150 49.0576271,146.339126 49.0576271,145.527728 C48.66474,144.709941 47.4860788,142.671863 45.9355244,141.860465 L45.9355244,141.860465 Z M53.2960633,109.578438 C51.2697393,107.997671 48.0232631,106.413793 43.1551051,104.826803 C41.9380656,104.431612 39.0993443,104.826803 37.8791922,104.826803 C34.6264907,110.368821 33.4219018,115.52187 30.9847101,121.46219 C30.57073,122.6571 29.7614454,125.034473 29.7614454,125.034473 C27.7444592,123.848898 25.7056846,123.058515 23.6700226,123.058515 C20.4173212,123.058515 17.9863548,124.24409 16.7755406,127.411846 C15.567839,127.016654 13.9430446,126.226271 11.9136079,126.615239 C9.08111188,127.016654 6.63458236,128.603644 5.41443023,130.977905 C4.203616,132.558671 3.79586108,134.145661 4.203616,135.732651 C2.18040457,136.526146 0.944689277,138.508327 0.141629969,140.089093 C-0.664541973,143.256849 2.18040457,148.811314 3.39433143,150 L7.4500922,150 C6.63458236,146.433941 5.01290058,144.846951 6.22994007,141.280892 C7.04856255,139.29871 9.88105856,138.508327 10.6965684,138.106912 C10.6965684,136.526146 8.66090643,135.337459 9.08111188,133.744246 C9.88105856,131.774512 12.3151375,131.774512 14.7523292,132.16348 C14.3445742,134.547076 13.9430446,137.711721 13.5352897,140.879477 C13.1275348,144.451759 15.1600841,150 15.1600841,150 L19.2127322,150 L19.6204871,150 C19.2127322,148.811314 18.8080899,147.619515 18.8080899,146.433941 C18.4127855,145.242142 18.4127855,144.451759 18.4127855,143.256849 C18.8080899,141.676083 18.8080899,140.089093 18.8080899,138.909742 C22.8669633,136.921337 21.6468112,139.693902 22.4529832,140.484285 C22.4529832,140.484285 24.0902281,136.921337 22.0545661,135.337459 C21.6468112,134.942268 19.2127322,135.337459 19.2127322,134.942268 C19.2127322,134.547076 19.6204871,133.355278 20.0220168,132.16348 C20.8437519,130.57649 21.2452816,130.187522 22.0545661,128.995724 C22.4529832,128.603644 23.6700226,128.603644 25.304155,128.995724 C25.7056846,128.995724 27.7444592,129.390915 28.9521608,129.786107 C28.5444059,130.977905 26.9227241,133.355278 26.5274197,134.547076 C24.9057379,139.29871 24.9057379,144.846951 25.304155,150 L29.7614454,150 C29.7614454,147.2181 29.3599157,144.050344 29.7614454,141.280892 C30.57073,137.711721 31.7815442,137.316529 32.2048623,137.316529 C33.0016963,137.316529 33.8172062,138.106912 34.2374116,138.909742 C35.0373583,142.861658 32.6063919,146.433941 32.6063919,150 L35.8528681,150 C35.8528681,150 37.0761329,149.601697 37.4776625,148.416122 C38.2838345,146.032526 39.9086289,143.648929 40.3226091,141.280892 C40.7179135,139.29871 39.9086289,137.711721 38.6853641,135.337459 C37.4776625,133.744246 36.260623,132.558671 33.4219018,130.57649 C32.6063919,128.995724 33.4219018,127.016654 33.4219018,127.016654 C33.4219018,127.411846 35.0373583,126.615239 35.8528681,126.615239 C39.0993443,127.411846 39.9086289,127.411846 41.5303107,128.202229 C42.7473502,128.603644 44.3659193,129.390915 45.5860714,130.187522 C46.8031109,130.977905 48.0232631,133.355278 49.2403026,136.127843 C49.2403026,136.127843 50.0495871,130.977905 50.0495871,129.390915 C48.4372433,127.813261 46.8031109,126.226271 44.3659193,125.034473 C42.3271447,123.447483 37.8791922,122.261909 35.8528681,121.46219 C35.8528681,121.46219 36.6621527,120.276615 36.6621527,119.486232 C39.0993443,119.084817 41.9380656,119.084817 43.1551051,119.486232 C47.2170911,120.678031 52.0790238,123.058515 54.1146858,124.639281 C54.1146858,124.639281 54.9177451,123.058515 54.9177451,122.261909 C54.9177451,122.261909 49.2403026,118.695849 49.6418322,117.504051 C48.0232631,116.318476 46.8031109,115.126678 45.1845418,114.728375 C42.7473502,114.339407 37.8791922,113.944215 37.8791922,113.944215 C37.8791922,113.944215 39.0993443,112.363449 40.3226091,111.165427 L43.5690853,111.165427 C45.1845418,111.165427 49.2403026,112.363449 51.6712689,113.549024 C55.3317253,115.126678 57.3487115,116.318476 57.7626917,117.108859 C58.157996,115.917061 58.5719762,114.339407 58.9859564,113.549024 C54.5162155,111.962034 54.9177451,110.368821 53.2960633,109.578438 L53.2960633,109.578438 Z M44.1685304,98.6787644 C44.5644078,97.4663409 44.1685304,96.6580586 44.5644078,95.4392708 C44.5644078,94.6309885 44.5644078,92.6071005 44.9694915,91.394677 C44.1685304,90.9841715 42.554333,91.7988182 41.3697699,91.7988182 C40.1698626,91.7988182 37.3772397,91.7988182 37.3772397,92.2029593 C37.773117,93.0176061 37.773117,93.8227062 38.1689943,94.6309885 C38.5679405,95.4392708 38.9638178,96.2475531 38.9638178,98.2809877 C38.9638178,99.4934111 39.3719704,100.712199 38.9638178,102.325581 C38.9638178,102.325581 44.1685304,99.4934111 44.1685304,98.6787644 L44.1685304,98.6787644 Z M39.1588881,89.1160134 C39.9687283,87.9235406 42.3889046,85.5479355 43.2174334,84.750878 C42.3889046,83.9600475 41.9995584,82.7675747 41.5915235,81.9767442 C39.9687283,81.9767442 33.8731235,84.3492357 33.8731235,84.3492357 C35.0941133,86.3356525 35.9101831,88.3251829 36.7200232,90.6976744 C37.536093,90.3022592 38.3428184,89.9068439 39.1588881,89.1160134 L39.1588881,89.1160134 Z M54.4645846,91.1495698 L52.0626722,91.1495698 C52.0626722,91.1495698 51.2651024,94.2524884 51.2651024,96.5834911 C50.869385,97.7520435 50.4583297,98.5270104 50.4583297,98.9144938 C49.6607599,100.467479 49.2650425,100.854962 48.4736077,102.798481 C49.6607599,103.185965 50.869385,102.410998 51.6608197,102.410998 C52.4583896,102.023515 53.657812,101.629929 54.0688673,101.248548 C54.4645846,100.854962 55.664007,98.1334249 56.0658596,97.3645601 L56.0658596,94.6460739 C55.664007,93.8650049 56.0658596,92.3120201 56.0658596,91.1495698 C55.664007,90.3685008 54.860302,90.7559842 54.4645846,91.1495698 L54.4645846,91.1495698 Z M76.5065375,120.348837 C76.0985673,119.942341 76.0985673,119.122946 75.6747843,118.316354 C74.8588439,115.864571 75.2731392,114.641881 74.8588439,112.209302 L71.5602941,112.209302 C70.7317034,112.609397 70.3174081,112.209302 69.4983051,112.609397 C69.4983051,114.241785 69.9094379,115.458075 71.1459987,117.496959 C72.3762345,119.942341 76.5065375,120.348837 76.5065375,120.348837 L76.5065375,120.348837 Z M34.5706194,82.5581395 C34.5706194,82.5581395 35.8295387,81.7758852 35.8295387,80.9750058 C37.9309656,78.6065137 40.4520322,76.6229403 40.8813559,76.2411257 C40.0291644,74.2513439 39.6127526,73.8571126 38.3473773,72.6744186 C37.9309656,73.0686499 35.8295387,74.2513439 35.400215,75.046015 C34.5706194,75.4402463 33.7248839,75.8344776 33.2891041,76.2411257 C33.2891041,77.0295883 33.7248839,77.4176113 34.1348397,78.2122823 C34.1348397,79.000745 34.5706194,80.9750058 34.5706194,82.5581395 L34.5706194,82.5581395 Z M66.4016866,96.3227315 C66.4016866,95.9302326 65.133473,95.9302326 64.3009053,95.9302326 C63.4522025,95.9302326 62.6260888,96.3227315 61.767705,96.3227315 C60.9286833,97.4880577 60.5123994,98.6472987 60.0928885,100.199039 C59.6766047,101.361322 58.8311289,102.134149 58.401937,102.906977 C58.401937,102.906977 62.1968969,102.134149 63.0359186,102.134149 C64.3009053,101.361322 65.133473,100.968823 65.9789487,99.420126 C66.4016866,98.2547997 66.8276515,97.8744713 66.4016866,96.3227315 L66.4016866,96.3227315 Z M117.745303,127.847826 C116.933544,127.447037 109.163847,123.88964 107.938372,123.88964 C105.484289,124.284216 101.406686,124.284216 98.9400661,125.474157 C98.5420219,124.284216 98.1377093,122.305123 98.9400661,121.118288 C99.3443787,120.322923 103.440786,120.322923 104.663127,120.322923 C109.163847,120.723712 111.611662,121.50665 112.837137,121.50665 C114.065745,122.699699 115.297488,122.699699 115.701801,122.699699 C115.701801,122.699699 115.297488,120.322923 114.880639,119.533771 C113.253986,118.744619 111.611662,118.350043 110.383053,117.955467 C108.342685,117.160102 107.530925,116.759312 104.261948,116.37095 C103.042742,116.37095 103.042742,116.759312 100.588659,116.759312 C100.588659,116.37095 100.992971,115.97016 101.406686,115.575584 C102.209043,114.394964 103.042742,113.605812 103.857636,112.810446 L110.383053,112.810446 C112.028511,113.205022 112.837137,113.605812 114.880639,114.394964 C116.099845,114.394964 114.880639,112.422084 114.880639,111.225929 C114.476326,110.825139 114.065745,110.430563 113.253986,110.035987 C111.611662,109.641412 110.383053,109.246836 108.746997,108.45147 C107.530925,108.063108 105.086245,107.270849 103.042742,107.665425 C100.992971,108.45147 100.992971,108.063108 99.3443787,108.85226 C97.3134131,111.626719 96.0879384,114.783326 94.865598,117.955467 C94.865598,118.744619 92.8189613,123.48885 92.8189613,124.284216 C92.8189613,124.678792 92.4209171,125.474157 92.4209171,125.474157 C90.7754589,125.073368 83.4226111,123.88964 81.385377,125.862519 C80.5767518,126.651671 79.7493214,127.447037 78.5144441,129.817599 C76.8846569,128.636978 75.656048,128.236188 74.0262608,128.236188 C71.9764899,128.236188 69.5349433,129.423023 68.3094686,131.395902 C68.3094686,131.802906 65.0404915,137.730865 65.4448041,143.267355 C65.8553851,146.439496 67.083994,147.623224 68.7137812,150 L73.2176356,150 C72.8070546,148.41859 71.9764899,146.439496 71.1678647,144.059613 C70.7572837,142.083627 71.5784457,138.52623 71.9764899,135.360303 C71.9764899,135.360303 73.2176356,134.571151 74.4305734,134.170361 C75.2580038,133.381209 75.656048,133.769572 76.8846569,133.769572 C77.3015063,133.769572 77.3015063,134.170361 77.3015063,134.170361 C75.656048,135.754879 75.656048,137.336289 75.2580038,139.709958 C75.2580038,140.893686 76.8846569,146.834072 78.5144441,150 L81.795958,150 C81.795958,150 80.974796,142.083627 81.385377,141.294475 C81.385377,139.709958 81.795958,138.52623 82.2002706,137.336289 C83.0182984,137.730865 83.8269237,137.730865 84.6480857,138.125441 C85.8704261,138.92702 85.8704261,139.709958 85.8704261,140.893686 C85.8704261,142.872779 85.8704261,143.267355 85.4723819,144.460403 L85.4723819,146.439496 C85.4723819,148.41859 85.8704261,150 85.8704261,150 L89.15194,150 C89.15194,146.439496 89.5437158,146.834072 89.9605652,144.854979 C90.3711463,143.267355 89.9605652,142.484417 90.3711463,141.294475 C90.3711463,140.49911 90.7754589,139.709958 91.1985767,139.315382 C92.4209171,138.52623 93.2358108,138.52623 94.865598,138.92702 C94.865598,140.104534 94.865598,141.294475 94.4675538,142.484417 C94.044436,144.460403 93.6401234,146.439496 92.8189613,148.41859 C92.8189613,148.813165 92.4209171,149.602317 92.0040677,150 L96.9091005,150 C96.9091005,150 97.7177257,148.41859 98.1377093,146.439496 C99.3443787,147.623224 100.992971,146.834072 101.804731,146.834072 C103.042742,146.439496 103.857636,145.249555 104.663127,144.460403 C103.042742,143.267355 99.3443787,143.658824 99.3443787,142.083627 C98.5420219,139.315382 99.3443787,138.92702 99.3443787,137.336289 C99.3443787,134.965727 96.9091005,134.170361 94.4675538,133.769572 C93.6401234,133.381209 92.0040677,133.381209 91.1985767,133.381209 C90.3711463,133.769572 89.5437158,134.965727 88.7476274,134.965727 C88.7476274,134.965727 87.1021692,133.769572 85.8704261,133.381209 C85.0586667,133.381209 82.601449,132.585844 82.601449,132.585844 C83.0182984,131.802906 83.4226111,131.00754 83.8269237,130.606751 C84.2312363,130.218389 85.4723819,129.028447 85.8704261,129.028447 C86.6978566,128.636978 87.9170628,129.028447 88.7476274,129.423023 C90.7754589,129.817599 92.4209171,130.218389 92.8189613,130.218389 C93.2358108,130.218389 94.4675538,131.00754 94.4675538,131.00754 C95.671089,130.218389 95.671089,129.423023 96.492251,129.423023 C98.9400661,128.636978 99.7674965,128.236188 102.209043,128.236188 C104.261948,128.236188 105.901138,131.802906 107.114076,132.986634 C107.530925,133.769572 110.383053,137.336289 112.028511,140.49911 C112.837137,140.104534 113.253986,139.315382 114.065745,139.315382 C114.065745,138.52623 113.658299,135.360303 113.253986,134.965727 C112.028511,131.395902 109.580696,130.606751 109.580696,129.817599 C110.383053,129.817599 112.028511,130.606751 112.837137,130.606751 C113.658299,131.00754 114.880639,131.395902 116.099845,132.191268 C116.516695,132.585844 117.334722,132.986634 117.745303,133.381209 C118.149616,134.965727 118.149616,136.149454 118.970778,137.730865 C118.970778,138.125441 118.970778,138.52623 119.375091,138.92702 C120.6037,136.547137 121.829174,136.149454 122.644068,134.170361 C121.829174,130.606751 119.779403,129.028447 117.745303,127.847826 L117.745303,127.847826 Z M114.383104,145.842518 C113.551015,147.505511 112.715738,149.161982 112.715738,150 L117.290632,150 C118.543547,148.340268 118.954809,146.677275 118.119532,144.186047 C116.882558,144.600164 114.383104,143.344768 114.383104,145.842518 L114.383104,145.842518 Z M70.5521057,106.559009 C71.7525221,106.164654 72.5405817,105.369733 73.7440526,104.975378 C74.5321122,104.581023 75.3384988,98.255814 75.3384988,98.255814 C75.3384988,98.255814 72.949884,98.6439588 72.5405817,99.0445243 C72.1404429,99.0445243 70.5521057,99.0445243 69.7609916,99.8332347 C69.7609916,101.019405 69.7609916,102.202471 69.3669618,103.786102 C68.5666842,104.975378 66.5782082,105.764088 66.5782082,107.742075 C66.5782082,107.742075 68.1726544,108.139535 68.5666842,108.139535 C69.3669618,107.742075 70.1580759,106.953364 70.5521057,106.559009 L70.5521057,106.559009 Z M30.9530266,60.8869837 L30.9530266,62.8428469 C30.9530266,63.6313524 31.3779423,67.9434919 31.3779423,69.1170098 C31.7900785,70.2966879 31.7900785,71.4702059 32.195825,72.6468039 C32.6303252,73.4291492 33.0424614,74.2114945 33.0424614,75 C33.0424614,75 33.8795132,74.6149876 34.2852597,73.8203219 C35.5376426,72.6468039 35.9625582,71.4702059 36.7932203,69.9055153 C36.3746944,67.1611466 35.5376426,64.8048704 35.5376426,64.0225251 C35.5376426,60.8869837 35.9625582,60.0984782 36.3746944,58.1395349 C34.716565,58.9188001 32.6303252,60.0984782 30.9530266,60.8869837 L30.9530266,60.8869837 Z M85.645409,116.860465 C86.0371475,116.860465 86.4348668,116.063103 86.4348668,116.063103 C86.0371475,114.458961 85.645409,112.465556 85.2656319,110.864553 C85.2656319,110.864553 84.0814452,110.060913 82.9241718,110.060913 C82.1436851,110.060913 81.3661887,109.662231 80.5946731,110.060913 C80.9744502,111.269513 80.9744502,112.073153 81.3661887,113.269196 C82.5264525,114.860781 84.0814452,115.658143 85.645409,116.860465 L85.645409,116.860465 Z M49.4459776,74.2476252 C49.0606144,73.4610219 47.8925757,73.0677203 47.118862,72.6744186 C46.3361865,72.6744186 45.5535109,74.2476252 45.5535109,75.8270255 C45.5535109,76.6136288 45.9508233,79.3822247 46.3361865,80.5621296 C46.3361865,80.9554312 47.118862,81.3549266 47.8925757,81.754422 C49.0606144,82.5348316 50.2226785,82.9281332 51.3937046,83.7209302 C51.3937046,83.7209302 50.2226785,80.1750217 49.8373154,78.1992229 C49.4459776,77.0193179 50.2226785,75.4337239 49.4459776,74.2476252 L49.4459776,74.2476252 Z M58.5281183,86.627907 C58.9407932,85.0094747 60.1539952,84.2018484 60.1539952,81.3687971 C60.1539952,81.3687971 59.7537316,79.3433721 59.353468,78.5325661 C58.9407932,77.7249398 58.5281183,76.9173135 57.321122,76.1096872 C56.91155,76.1096872 56.1110228,75.2893424 55.7107592,75.6931555 C55.7107592,75.6931555 55.2980844,78.9363793 54.8978208,79.3433721 C55.7107592,80.5548115 56.517492,81.3687971 56.91155,82.5802365 C57.321122,83.7980353 57.7213855,85.4132879 58.5281183,86.627907 L58.5281183,86.627907 Z M69.5319697,93.0232558 C70.770268,91.8199933 69.5319697,89.8187447 69.5319697,88.6217656 C69.1075014,87.4185031 69.5319697,86.2183823 69.1075014,85.0151198 C68.6957992,84.2171337 67.8532457,83.8181407 67.0298411,83.8181407 C66.1968621,83.8181407 64.1192018,82.6148782 64.1192018,83.4128643 C62.03835,83.4128643 63.7074996,85.4141129 63.7074996,86.6142337 C63.7074996,88.2164892 67.8532457,92.2189864 67.8532457,92.2189864 C68.6957992,92.6179794 68.6957992,92.2189864 69.5319697,93.0232558 L69.5319697,93.0232558 Z M30.0276428,59.3023256 C30.8606761,58.0910853 33.3502375,55.6686047 34.5807104,54.0451621 C35.4232823,53.2397825 37.0829899,51.2231625 41.2195409,49.2033717 C41.632878,47.5862707 42.0493947,46.3782012 42.0493947,44.7674419 C37.9033052,45.9755114 35.0004066,46.7872326 34.1832709,47.5862707 C32.1070466,48.8006818 31.2708338,49.6124031 29.2009685,50.8268142 C29.2009685,53.2397825 29.2009685,53.2397825 29.6111262,54.4541936 L30.0276428,59.3023256 L30.0276428,59.3023256 Z M93.4430993,104.066723 C92.1854576,103.293559 90.0989884,100.967978 88.8605473,99.8051869 C88.0125192,99.0320224 88.4253328,97.8722757 87.5933053,97.0930233 C86.7676779,97.0930233 85.9228498,97.0930233 85.0940224,97.4796055 C83.8363806,97.4796055 83.0107533,97.4796055 81.7627119,97.8722757 C82.1755256,98.6393522 82.1755256,99.4186047 83.0107533,99.8051869 C84.6748085,101.35456 84.6748085,101.74723 86.3420638,104.066723 C86.7676779,104.845976 88.8605473,105.232558 90.5182023,105.232558 C91.3630303,105.232558 93.0174852,104.459394 93.4430993,104.066723 L93.4430993,104.066723 Z M77.6669631,81.9767442 C75.9725485,82.3631017 72.6063116,82.7494592 72.6063116,83.914616 C72.1835148,85.0736885 72.6063116,86.2358031 72.6063116,87.0146025 C73.0387908,87.7873175 73.0387908,88.5600324 73.0387908,89.7251893 C73.0387908,90.4979043 72.6063116,91.2767036 73.0387908,92.4418605 C73.4615875,91.6630611 75.5626616,90.8903461 75.9725485,90.1115468 C76.8213695,88.9524743 77.6669631,88.1797593 78.0833049,87.0146025 C78.5061017,85.8524878 78.0833049,83.914616 77.6669631,81.9767442 L77.6669631,81.9767442 Z M82.667621,81.6197857 C81.4225687,82.4193223 80.5946731,82.8190907 80.5946731,83.6186273 C80.5946731,85.2239962 81.0022031,86.8262172 81.0022031,87.6320495 C81.0022031,88.83765 81.0022031,89.6371866 81.4225687,90.036955 C82.667621,90.4367233 83.0944044,90.4367233 84.7630312,91.2362599 C84.7630312,91.6423238 86.4348668,92.4418605 86.4348668,92.4418605 C86.4348668,92.4418605 85.6069712,88.83765 85.1833967,87.2259856 L85.1833967,80.8139535 C83.5083522,81.2137218 83.0944044,81.6197857 82.667621,81.6197857 L82.667621,81.6197857 Z M35.3239632,43.9825468 C35.720103,43.5911751 40.1298454,40.478547 40.5198435,40.0902329 C41.3213356,39.3136047 41.7236171,39.7019188 42.1074735,38.9252906 C42.1074735,36.5862331 42.92432,36.5862331 42.5220385,35.8157201 C42.1074735,35.0268615 38.9230008,35.8157201 38.1184378,35.8157201 C36.1223845,36.197919 32.5172052,37.3598038 32.5172052,38.1425472 C32.1210654,39.3136047 32.1210654,42.0318035 32.1210654,42.432348 C32.5172052,43.5911751 32.5172052,44.7652902 32.9072033,45.9302326 C34.1263312,44.7652902 34.5101876,44.3769761 35.3239632,43.9825468 L35.3239632,43.9825468 Z M122.837994,114.556274 C122.452384,114.165713 121.675186,113.768903 120.89201,113.372093 L120.89201,114.956209 C120.89201,116.54345 121.271641,116.946509 121.271641,117.746378 C121.271641,118.539998 122.452384,124.110963 122.452384,125.698203 C124.395379,126.101262 124.395379,127.694752 125.564165,128.488372 C125.564165,128.488372 124.780988,123.714152 124.780988,117.746378 C124.780988,117.343319 123.624159,114.956209 122.837994,114.556274 L122.837994,114.556274 Z M98.6292655,99.8098069 C100.242698,100.96757 103.460291,100.580634 106.291525,100.196744 C104.665729,99.0298398 104.270098,98.2498728 103.460291,97.4820927 C102.24558,96.7021257 101.454318,96.3151889 99.8377946,94.7674419 L94.611138,94.7674419 C95.4054909,96.7021257 95.798031,97.8690295 98.6292655,99.8098069 L98.6292655,99.8098069 Z M82.8018419,74.0281652 C83.6256,73.2545957 84.4367817,71.7105023 84.4367817,71.3176264 C85.2668281,69.7704874 85.2668281,67.8304725 85.2668281,66.2772424 C81.9938043,64.334182 77.8907342,63.9534884 73.7939523,63.9534884 C70.1027612,63.9534884 66.0028352,64.334182 61.9060533,67.056903 C62.3242206,68.6101332 62.7235232,69.7704874 63.5504254,71.3176264 C63.9560163,71.3176264 64.3678954,72.097287 64.767198,72.097287 C65.5909561,71.3176264 66.4178584,70.1572722 67.6346309,69.7704874 L67.6346309,71.3176264 C67.6346309,72.4810262 67.6346309,73.2545957 68.0590864,74.4271322 C68.0590864,75.5813953 69.2884354,75.5813953 70.9202311,75.5813953 C72.5551709,75.5813953 72.9764824,72.867811 72.9764824,72.4810262 C72.9764824,72.4810262 73.3883614,74.0281652 75.8344829,75.1946106 C75.8344829,75.1946106 78.7019159,75.1946106 78.7019159,74.8078258 C79.1200832,72.867811 79.5351064,72.4810262 79.1200832,70.9308417 C79.1200832,70.9308417 81.5819252,72.4810262 82.8018419,74.0281652 L82.8018419,74.0281652 Z M95.7791768,89.127275 C94.1073411,86.7132204 93.6933933,84.3023256 93.6933933,83.9010364 C92.8590799,83.0921385 94.5212889,80.2831143 92.4322965,80.2831143 C91.6076098,79.869186 89.0982519,79.0697674 89.0982519,79.0697674 C88.6618418,80.2831143 88.6618418,82.6908493 89.0982519,83.9010364 C89.0982519,85.1049039 91.1744086,88.7323054 92.0151398,89.127275 C92.4322965,89.5348837 94.5212889,89.5348837 94.9544901,89.5348837 C95.3620201,89.127275 95.7791768,89.127275 95.7791768,89.127275 L95.7791768,89.127275 Z M32.9338739,36.627907 C33.7657327,35.4532469 33.7657327,35.4532469 34.5912413,34.6536102 C36.2581338,33.4727514 37.0899926,32.6793134 39.1537643,31.0986362 C39.5633436,30.3051983 39.9792729,30.7050166 41.220711,29.9177774 C41.6334653,29.5272571 42.0493947,29.1274388 42.0493947,28.7338192 C42.0493947,27.94658 41.6334653,27.153142 41.220711,26.3721015 C40.8047816,25.5786636 39.9792729,23.6043668 39.9792729,23.2045484 C39.9792729,20.0524922 40.4015524,19.2652529 40.8047816,16.4975182 C39.1537643,16.1038986 37.0899926,16.1038986 36.2581338,17.6845758 C35.4326252,18.8716333 35.4326252,20.0524922 35.4326252,21.2457485 C35.4326252,23.2045484 35.8422045,24.7914243 36.2581338,27.153142 C34.5912413,28.3463983 33.7657327,29.1274388 32.1210654,29.9177774 C32.5306447,32.2856938 32.9338739,36.627907 32.9338739,36.627907 L32.9338739,36.627907 Z M115.051816,94.2712842 C114.251099,93.4690454 113.453462,92.6699651 112.249307,91.8614095 C110.632475,91.4602901 109.844077,90.6517345 109.024882,89.047257 C108.627603,88.2450182 108.230324,87.4364626 107.420368,86.627907 C106.63197,86.627907 106.228532,87.0353432 105.427815,87.4364626 C104.617859,88.2450182 103.004107,88.2450182 102.20339,89.4483763 C102.600669,90.2506151 103.004107,91.0591707 103.810983,91.8614095 C104.22058,92.2625288 104.617859,93.0710845 106.228532,93.8701648 C109.024882,95.4746423 109.844077,95.8757617 109.844077,95.8757617 C112.249307,96.2831979 115.051816,94.2712842 115.051816,94.2712842 L115.051816,94.2712842 Z M95.1951574,76.744186 C95.1951574,76.744186 95.5866521,78.7484175 96.3943027,80.7432394 C96.8042933,81.5461866 97.5996133,82.3428607 98.0126865,82.3428607 C98.8018413,82.7411978 100.423308,83.1395349 101.61937,83.1395349 L101.61937,82.3428607 C100.423308,81.1415765 98.8018413,78.3500804 98.8018413,77.5471332 C98.0126865,77.1550692 98.0126865,77.1550692 96.8042933,77.1550692 C96.3943027,76.744186 95.5866521,76.744186 95.1951574,76.744186 L95.1951574,76.744186 Z M131.786748,105.232558 C131.408085,106.398393 130.23632,107.171557 130.23632,108.72093 C130.23632,108.72093 132.183299,110.653841 132.573888,111.825764 C132.961495,112.598929 132.573888,116.087301 132.961495,116.860465 C134.127297,115.69463 134.908475,115.308048 134.908475,113.764763 C134.511923,113.378181 134.127297,110.267259 133.736709,107.947766 C133.736709,107.171557 132.573888,106.011811 131.786748,105.232558 L131.786748,105.232558 Z M164.253405,133.139535 C162.243322,133.139535 159.846567,135.491872 158.250776,142.936832 C157.851828,145.689436 157.449811,148.04793 157.851828,149.605891 L161.442358,150 C162.243322,148.823832 162.243322,146.862525 163.047355,145.292248 C163.047355,144.510188 163.857526,144.510188 164.643146,144.510188 C165.450248,144.901218 167.058314,146.862525 167.847003,147.644584 C168.24902,146.862525 169.046915,145.292248 169.046915,144.113 C169.046915,143.715813 167.847003,142.936832 167.448055,142.936832 C166.254281,142.154773 165.450248,141.372713 163.857526,141.372713 C163.449371,139.802436 165.846127,137.841129 165.846127,137.841129 C168.644898,137.841129 171.449808,140.975525 171.449808,140.975525 C172.247703,140.584496 172.643582,139.411406 173.453753,138.629347 C171.047791,134.312624 166.65016,133.139535 164.253405,133.139535 L164.253405,133.139535 Z M143.084746,112.093238 C142.688447,111.302283 142.298107,110.118939 141.916707,109.334163 C141.916707,108.941774 141.916707,108.156998 141.520408,106.976744 C141.520408,106.976744 138.796971,108.941774 138.412591,109.334163 C139.96501,111.302283 139.19327,112.491806 139.568711,114.061358 C139.568711,114.839955 141.136028,115.235433 141.520408,116.418777 C141.520408,116.804985 140.757607,120.348837 140.757607,120.348837 C143.084746,117.203553 143.084746,113.270403 143.084746,112.093238 L143.084746,112.093238 Z M176.270974,146.780207 C175.868966,147.996714 175.447966,148.792973 174.621792,149.595551 C175.039627,150 175.868966,150 176.270974,150 L180.414504,150 C180.80385,149.595551 180.80385,148.391684 181.221685,147.582786 C181.221685,146.780207 181.630024,145.971309 181.630024,144.767442 L179.151503,144.767442 C177.920156,144.767442 176.685643,145.57634 176.270974,146.780207 L176.270974,146.780207 Z M120.602016,88.5535367 L122.617427,88.5535367 C123.431641,88.5535367 123.431641,87.0110168 122.617427,87.0110168 C119.787803,86.233684 117.373025,85.4654605 115.760077,83.1395349 C115.36071,83.5312378 112.930453,84.2964248 112.131719,85.0737576 C112.131719,85.0737576 112.930453,87.0110168 114.94896,88.9452396 C116.153253,90.1021295 118.589702,89.3308695 120.602016,88.5535367 L120.602016,88.5535367 Z M102.787409,75.4352632 C104.0033,77.0395839 105.209956,78.2334241 106.413534,79.4303978 C106.804466,80.2325581 108.011122,80.2325581 108.805299,80.2325581 L112.822356,80.2325581 C114.029013,79.8220776 114.829346,79.8220776 115.635835,79.0293176 C114.029013,78.2334241 112.02818,77.4312637 110.412122,76.6291034 C108.805299,75.8332099 107.610956,75.0373164 106.413534,73.8372093 C105.600888,73.8372093 105.209956,74.235156 104.794399,74.235156 C104.0033,74.6456365 103.593899,75.0373164 102.787409,75.4352632 L102.787409,75.4352632 Z M60.1539952,56.1831395 C60.1539952,56.1831395 61.7634078,55.8139535 62.982096,55.8139535 C63.7976558,55.8139535 64.6039127,55.8139535 65.4101695,56.1831395 C64.9977381,56.5523256 63.3821235,57.2906977 63.3821235,57.2906977 C62.5882706,57.6598837 62.1758392,58.0261628 60.957151,58.3953488 C60.5571236,57.6598837 60.1539952,56.1831395 60.1539952,56.1831395 L60.1539952,56.1831395 Z M59.8940575,47.7190794 C60.6920773,46.5399653 62.312766,45.7538892 63.5144174,45.3608512 C65.1166192,44.9678132 64.7068253,41.8142246 64.7068253,41.4211866 C65.1166192,40.6289209 64.7068253,39.4498068 64.7068253,38.6575412 C63.9118867,39.0567688 63.9118867,38.6575412 62.312766,39.0567688 C60.6920773,39.0567688 59.8940575,38.2645032 59.0991189,37.4722376 C58.2795311,36.6892563 56.2829411,35.1109146 55.4818402,33.5449521 C57.4784302,33.1395349 59.0991189,33.1395349 61.1018712,33.1395349 L66.3244329,33.1395349 C67.5168408,33.5449521 68.3302663,34.3310281 68.3302663,35.1109146 C68.3302663,35.5039526 67.932797,37.8714652 67.932797,38.2645032 C67.5168408,40.6289209 67.5168408,41.4211866 67.1255338,44.9678132 L67.1255338,46.1469272 C66.7219022,46.9391929 65.1166192,47.3322309 64.3155183,48.118307 C63.9118867,49.297421 63.9118867,50.0896867 62.704073,50.4827247 C61.4931782,50.8819523 60.6920773,52.0579716 59.8940575,51.6649336 C58.689325,50.8819523 59.0991189,48.904383 59.8940575,47.7190794 L59.8940575,47.7190794 Z M53.2745415,27.3255814 C52.4406695,26.5585048 50.7761081,25.3926702 49.9486015,23.8402533 C48.7168897,22.2908803 49.1210949,20.7445513 49.1210949,20.3518812 C49.9486015,18.0262998 52.85124,17.2470474 54.5221668,16.8604651 C55.343308,16.8604651 56.17718,16.8604651 57.41844,17.6397175 C59.0798186,18.412882 59.9136906,18.412882 60.7380145,21.1250457 C60.7380145,21.5238037 60.7380145,21.8982102 60.3242612,21.8982102 C60.3242612,21.8982102 57.8290105,23.4475831 56.9983212,24.2329234 C54.9327374,25.3926702 54.5221668,27.3255814 53.2745415,27.3255814 L53.2745415,27.3255814 Z M65.0778582,27.110911 C66.2788924,26.2890109 67.4646073,25.4735319 68.273467,25.4735319 C69.0761991,25.0657924 70.6663438,24.6516318 70.6663438,25.4735319 C70.6663438,27.110911 69.4714374,27.92639 68.273467,29.5573479 C67.4646073,30.7773559 67.0754967,29.9715085 65.0778582,29.9715085 L63.074092,29.9715085 C63.074092,28.7482901 63.8798879,28.3341295 65.0778582,27.110911 L65.0778582,27.110911 Z M81.818626,25.1856416 C82.5997696,25.1856416 89.3321942,26.7041559 84.9827136,28.5948552 C84.1802937,29.3570898 82.2107175,28.972995 80.225944,28.972995 C80.225944,28.2226703 80.225944,26.7041559 79.4417609,26.7041559 C78.6363015,25.9419213 77.4600269,25.9419213 77.4600269,25.1856416 C75.8643055,23.6671272 79.8338525,24.8075017 81.818626,25.1856416 L81.818626,25.1856416 Z M89.9302876,17.619968 C91.1876848,16.4272801 92.867414,16.0317935 94.5247467,16.4272801 C96.6108104,16.8227667 97.0235438,17.2182532 97.8618086,18.0154545 C99.1160064,19.603629 98.703273,22.7737498 98.2745421,24.7542968 C97.8618086,25.9469847 96.6108104,26.744186 95.3630116,26.744186 C93.2737484,24.3650384 91.1876848,22.7737498 88.2697553,21.9765485 C87.8506229,20.3946022 89.1176186,18.8064277 89.9302876,17.619968 L89.9302876,17.619968 Z M92.6206482,34.3478823 C92.2094226,35.1388006 91.3806449,35.5373984 90.5581938,35.9485504 C90.1374785,35.9485504 89.7420693,36.7394687 89.7420693,37.1380664 C88.9038018,38.3369982 87.6732884,38.7355959 86.0283862,38.7355959 C85.1964453,38.7355959 83.551543,38.7355959 82.7259286,37.1380664 C82.7259286,37.1380664 83.1308277,41.936932 83.1308277,43.1327251 C83.1308277,43.5313229 83.551543,43.5313229 83.551543,43.5313229 C85.1964453,43.9299206 85.6108341,45.5337272 86.4301219,46.3309227 C86.4301219,46.3309227 86.8445107,46.7295204 87.2652261,46.7295204 C88.9038018,47.9253136 92.6206482,49.5259816 90.9725827,49.5259816 C90.9725827,50.3294542 89.7420693,52.3255814 89.334007,52.3255814 C88.0813507,51.1329268 86.0283862,50.3294542 84.3676676,49.5259816 C83.9596053,48.7287862 83.551543,47.9253136 83.1308277,47.1343952 C82.3178664,46.3309227 81.9034775,46.3309227 80.660311,45.5337272 C80.660311,42.7404046 80.2522488,42.7404046 80.2522488,39.9376662 C80.2522488,39.5390685 79.4266344,35.1388006 79.4266344,35.1388006 C79.4266344,34.7402029 80.660311,33.5506869 81.9034775,33.1395349 C81.9034775,33.1395349 89.7420693,33.1395349 93.4430993,33.5506869 C93.4430993,33.5506869 93.0413635,34.3478823 92.6206482,34.3478823 L92.6206482,34.3478823 Z M87.7809351,58.7209302 C86.1631739,58.2995743 84.9545017,57.0321888 82.9307506,57.0321888 C82.9307506,55.7747567 82.9307506,55.7747567 83.3429388,55.3467652 C85.7695806,54.9254093 86.9813519,55.7747567 88.1869249,56.1961126 C88.1869249,56.6174685 87.7809351,58.7209302 87.7809351,58.7209302 L87.7809351,58.7209302 Z M61.3720564,64.401477 C62.5949067,64.401477 63.8146454,63.2155046 65.0312725,62.8118358 C67.455192,62.0170153 69.4932758,61.2221947 71.9171953,60.8247844 C72.7417636,60.4148573 72.7417636,59.6262951 72.7417636,58.8252161 C73.1493803,58.0335247 73.1493803,58.0335247 73.1493803,56.8412939 C73.1493803,56.4438836 71.5220249,56.0464733 70.7067914,54.4443153 C69.897781,53.245826 70.7067914,52.0535951 70.2991746,52.0535951 C69.0918822,52.8484157 67.455192,53.6432363 67.0600216,52.0535951 C66.6524048,50.8644935 66.6524048,49.2623355 67.8752551,48.8649252 C71.9171953,47.2752841 76.3885334,47.2752841 80.4553662,48.8649252 C81.2581534,48.8649252 81.6657702,49.6660042 81.6657702,50.4608248 C82.0671638,51.2556454 81.6657702,52.0535951 80.8505367,52.8484157 C79.6339095,53.245826 78.4079477,51.6561849 78.4079477,52.8484157 C78.4079477,54.0406466 77.6051605,55.6428046 75.5701883,56.4438836 C75.1750178,56.8412939 75.5701883,58.0335247 75.9871398,59.2288848 C75.9871398,59.6262951 75.9871398,60.4148573 76.3885334,60.4148573 C78.0127772,60.8247844 80.4553662,61.2221947 81.6657702,62.0170153 C83.2806793,62.8118358 86.1184387,65.1962976 86.5322787,64.8051457 C87.7426826,64.0103251 88.1440762,62.8118358 88.9686445,62.0170153 C93.4244246,64.0103251 97.0711944,65.1962976 102.75916,68.7948947 C103.56817,68.7948947 103.56817,67.1989951 103.56817,66.3979161 C101.530086,65.1962976 95.4407274,62.0170153 94.6410517,61.6133465 C93.023031,61.2221947 92.2140206,60.4148573 90.580442,60.0237054 L90.580442,56.8412939 C93.4244246,57.6361145 99.0874971,58.0335247 104.787909,61.2221947 C105.183079,60.0237054 106.004536,59.2288848 105.596919,58.8252161 C99.0874971,55.6428046 94.2458813,54.4443153 90.1790484,54.4443153 C90.1790484,54.0406466 89.3575918,53.6432363 90.1790484,53.245826 C91.3956756,52.4510054 91.8001807,52.0535951 92.2140206,51.6561849 C93.4244246,50.0634145 94.2458813,48.4675149 94.6410517,46.8778738 C95.8545673,44.4871536 97.0711944,45.2819742 97.8895395,40.0999944 C96.6698008,40.0999944 96.2559609,40.894815 95.0455569,41.2984837 C95.4407274,40.0999944 95.8545673,38.9077635 95.8545673,37.7092742 C96.2559609,35.3154249 97.0711944,33.7257837 97.0711944,30.9313948 C98.2909331,30.5277261 100.322794,29.3386245 100.724187,27.7489833 C100.724187,27.3453146 100.724187,26.1530837 101.134916,24.5571842 C101.134916,22.1695932 101.530086,20.1762834 100.724187,18.5803838 C100.724187,18.1829735 97.8895395,14.199483 95.8545673,13.0072521 C93.023031,11.8087628 91.8001807,12.2124315 89.7714317,12.6035834 C87.3350659,12.6035834 84.0834665,14.9943036 84.0834665,19.3814628 C81.6657702,19.3814628 76.789927,19.7788731 73.9521676,22.1695932 C71.5220249,20.9711039 69.4932758,20.5799521 67.455192,20.1762834 L63.8146454,20.1762834 C63.4132518,18.5803838 62.5949067,16.9844842 60.976886,15.7922533 C58.9543601,14.6031517 56.505548,13.0072521 53.6677886,13.0072521 C52.4511614,13.0072521 51.2407575,12.6035834 50.0210188,13.4109208 C48.8043917,14.199483 46.7756426,14.9943036 46.374249,16.5870739 C45.5590155,18.5803838 44.7500051,20.1762834 44.7500051,22.1695932 C44.7500051,24.1660323 45.9728554,25.7556735 47.1894825,27.7489833 C47.5815414,28.5500623 47.9953813,28.5500623 48.8043917,28.9412142 C49.2120084,28.9412142 50.8393639,29.7422932 51.2407575,30.1365743 C51.6421511,30.5277261 50.8393639,31.7324738 50.8393639,34.1294524 C50.8393639,36.1165039 50.8393639,36.1165039 51.2407575,37.7092742 C51.2407575,39.3051738 51.6421511,40.894815 52.0497678,42.0870458 C50.8393639,42.0870458 50.0210188,40.894815 49.2120084,41.695894 C49.2120084,42.496973 50.0210188,44.4871536 50.8393639,46.0767948 C52.8650014,48.0701046 54.8875273,50.0634145 56.1103775,52.4510054 C56.1103775,52.8484157 56.1103775,53.6432363 56.505548,53.6432363 C53.6677886,54.0406466 50.8393639,54.0406466 47.9953813,54.847984 C45.5590155,55.6428046 42.7212561,56.8412939 40.2973366,58.0335247 C40.2973366,59.6262951 40.692507,60.8247844 40.692507,60.8247844 C41.1001238,60.8247844 44.7500051,58.8252161 47.9953813,58.0335247 C53.266395,56.4438836 56.1103775,56.8412939 56.1103775,56.8412939 C56.505548,57.6361145 56.9162763,58.8252161 56.505548,59.2288848 C51.6421511,61.2221947 46.7756426,63.6129148 42.301193,66.3979161 C42.7212561,67.1989951 42.301193,68.3912259 43.1288728,69.1860465 C47.1894825,66.7953264 52.8650014,64.0103251 56.9162763,62.4144256 C58.5405202,62.0170153 58.5405202,62.4144256 59.3557537,62.4144256 C59.7571473,62.8118358 60.5630461,64.401477 61.3720564,64.401477 L61.3720564,64.401477 Z M138.99661,99.6452282 C138.99661,99.6452282 138.219412,98.0956282 138.219412,97.7173079 C137.833803,96.9425078 137.448193,95.7833344 136.276418,95.3989609 C136.276418,95.0145875 135.884829,96.9425078 135.49922,97.7173079 C135.101653,98.4860548 135.101653,98.0956282 134.324455,99.6452282 C135.101653,100.795322 135.49922,101.564069 136.276418,102.723242 C136.276418,103.107616 137.448193,104.651163 137.448193,104.651163 C137.448193,104.651163 138.99661,101.564069 138.99661,100.795322 L138.99661,99.6452282 L138.99661,99.6452282 Z M190.75225,145.649489 L188.746222,145.649489 C187.946272,145.24862 187.54322,145.24862 187.146322,145.649489 C185.940244,146.833449 185.940244,148.812932 185.13414,150 L189.9523,150 C190.75225,149.20137 191.558354,148.812932 191.558354,147.221888 C191.558354,146.833449 191.558354,146.037927 190.75225,145.649489 L190.75225,145.649489 Z M134.324455,91.0851023 C134.324455,87.5952089 133.476751,87.5952089 131.778082,86.0465116 C131.778082,86.0465116 130.496744,88.3741214 129.6523,89.5333624 C131.350969,91.0851023 131.778082,93.0232558 131.778082,93.0232558 C133.476751,91.4715159 133.476751,91.8579296 134.324455,91.0851023 L134.324455,91.0851023 Z M150.092978,105.089879 C150.092978,103.904495 149.680134,102.7253 148.870203,101.932981 C148.451056,100.753787 148.044515,99.1784328 148.044515,98.3861134 C147.619065,97.6061739 145.986597,95.2354055 145.16406,94.0562114 C144.344675,93.2731769 144.344675,91.3016633 143.931831,90.1162791 L138.99661,90.9024085 C141.470524,94.0562114 143.531593,97.2069192 144.744913,100.363817 C145.16406,101.546106 148.870203,113.372093 148.870203,113.372093 C150.092978,112.972838 148.451056,107.061392 148.870203,106.668328 C149.26729,105.882198 149.26729,105.482943 150.092978,105.089879 L150.092978,105.089879 Z M119.424537,73.4413184 C119.014318,72.6650338 118.18116,71.1094084 117.764582,70.7212661 C117.357543,69.9449815 116.934604,69.168697 116.511665,68.7744422 C116.107806,68.3924124 114.447851,68.7744422 113.624234,68.7744422 C112.791076,68.7744422 112.380857,68.7744422 111.5477,69.168697 C112.380857,69.9449815 113.201295,72.6650338 113.624234,72.6650338 C114.034452,73.4413184 114.034452,73.8294607 114.86443,74.2298279 C116.934604,74.6118577 118.591379,74.2298279 120.667913,75 C121.485171,73.8294607 119.834755,73.8294607 119.424537,73.4413184 L119.424537,73.4413184 Z M130.23632,82.4481984 C130.23632,82.4481984 125.272155,79.6704098 124.440562,78.4883721 C123.202695,78.4883721 123.202695,78.4883721 121.961654,79.6704098 C121.123713,79.6704098 120.720613,80.0779017 120.30799,80.8617794 C121.552205,81.6643207 121.961654,82.0531489 123.202695,82.8432478 C123.621665,83.2382972 124.031114,83.2382972 125.272155,82.8432478 L128.589004,82.8432478 C129.401553,82.8432478 130.23632,83.2382972 130.23632,82.4481984 L130.23632,82.4481984 Z M198.915578,141.27907 C198.915578,141.27907 198.492786,142.511585 198.069994,143.322535 C197.230865,145.375654 196.814528,146.19304 196.814528,147.41912 C198.069994,148.255814 198.492786,147.834249 200.180726,147.834249 C201.019855,147.834249 201.858984,148.255814 202.281775,148.255814 C203.120904,147.834249 202.281775,147.016863 202.281775,146.60817 C201.858984,146.60817 200.180726,142.913842 198.915578,141.27907 L198.915578,141.27907 Z M155.636888,106.976744 C157.30853,105.782852 157.731281,103.382533 158.154032,102.18864 C158.576783,100.988481 157.731281,98.5975624 157.30853,97.8016341 C156.053185,97.8016341 155.223818,96.9994387 154.365407,96.9994387 C153.526359,96.9994387 153.110063,95.0033509 151.845036,95.401315 C152.267787,96.2035104 153.110063,100.195686 153.526359,100.988481 C153.955565,101.392712 155.636888,104.184728 155.636888,106.976744 L155.636888,106.976744 Z M186.886199,128.777513 C186.886199,128.385211 185.597294,127.594381 185.187337,127.594381 C185.187337,127.192738 184.738024,125.60485 184.30839,125.215662 C183.465518,124.81402 183.465518,124.418605 182.606249,124.418605 C182.606249,124.81402 182.606249,125.215662 182.176614,126.006493 C182.176614,126.797323 181.317344,127.192738 181.753538,127.983569 C182.176614,128.777513 182.606249,128.777513 183.465518,129.172928 C183.888594,129.568344 185.187337,132.74412 185.597294,133.139535 C186.026929,132.74412 186.026929,130.359174 186.886199,128.777513 L186.886199,128.777513 Z M115.669261,64.3292345 C116.910466,64.3292345 117.728462,65.1162791 118.555932,65.1162791 C118.555932,63.9419094 118.13588,63.1548648 117.728462,61.9681007 C117.314727,59.9942921 116.490414,58.807528 116.070363,57.6300597 C116.070363,56.4494928 116.070363,55.656251 115.669261,54.8692064 C115.261842,54.8692064 114.84179,54.8692064 114.434371,54.4694869 C113.202641,54.4694869 111.5477,54.0697674 111.5477,54.0697674 C111.5477,55.2627287 111.967752,57.2303402 111.967752,58.4140057 C111.967752,58.807528 113.610059,62.361623 114.020636,62.7551453 C114.434371,63.5483871 114.84179,63.9419094 115.669261,64.3292345 L115.669261,64.3292345 Z M154.765133,90.5222967 C154.358868,89.3042438 153.133776,88.8918321 152.311798,88.0797969 C152.311798,88.0797969 146.983117,86.0465116 146.151692,86.0465116 C145.329715,86.4493323 148.20821,88.0797969 148.614475,88.8918321 C150.25528,90.5222967 154.358868,94.1860465 154.358868,94.1860465 L154.765133,90.5222967 L154.765133,90.5222967 Z M104.529334,40.6976744 C104.123285,41.0910864 103.704644,41.8841057 103.704644,42.2713222 C102.879954,43.4577535 101.661806,44.2476751 102.46761,45.4341064 C102.879954,47.0139496 102.879954,48.5875973 104.123285,49.7740286 C105.357172,50.9604599 106.987666,50.5608525 108.627603,51.744186 C108.627603,51.744186 107.393716,46.6143422 106.587912,44.2476751 C106.175567,42.677125 105.357172,41.8841057 104.529334,40.6976744 L104.529334,40.6976744 Z M182.306643,70.5510096 C177.028007,65.3943745 171.331571,62.2093023 165.644488,62.2093023 C160.7743,62.2093023 157.107628,65.7780806 157.107628,69.3624567 C157.107628,83.6625263 162.807183,92.8028412 166.461383,100.739006 C167.674253,102.726166 168.079582,104.317142 168.079582,106.304303 C168.488029,111.470297 164.026289,121.000557 161.176511,126.166551 C160.7743,125.764127 158.732063,125.374182 157.107628,125.374182 C153.044981,125.374182 151.420545,128.147472 150.603651,130.527698 C149.384545,130.527698 148.58324,129.735329 147.345426,129.735329 C142.478356,129.339145 138.412591,133.703411 138.412591,138.47946 C138.412591,143.632975 139.622343,146.424983 141.664579,150 L145.730345,150 C145.31878,148.808328 144.105909,142.843726 143.697462,141.258989 C143.301486,138.881883 144.105909,137.284668 145.31878,136.092995 C146.949451,133.703411 151.005862,134.508258 151.005862,134.508258 C149.792992,136.492299 148.168557,139.668013 148.168557,142.843726 C148.58324,144.834006 148.976098,148.022198 150.207675,150 L153.459664,150 C154.257851,147.613536 153.459664,145.632614 153.459664,143.632975 C153.459664,142.453781 153.459664,141.258989 153.855639,140.064197 C153.855639,139.271828 155.888522,141.655173 155.888522,141.655173 C155.888522,141.655173 157.516075,139.668013 157.516075,138.077036 C157.516075,136.888483 155.084099,137.284668 154.685006,136.092995 C154.257851,134.904442 155.486311,132.118674 155.486311,132.118674 C157.924523,130.527698 159.951169,130.930121 160.7743,130.930121 C161.984052,130.930121 162.386264,131.320066 164.026289,131.320066 C165.236041,131.320066 165.644488,128.94296 165.644488,127.757527 C166.046699,128.147472 167.278277,128.94296 167.674253,128.94296 C168.890241,129.339145 169.298688,129.339145 170.517794,129.735329 C172.148465,130.527698 173.776019,131.320066 175.40669,132.917282 L175.40669,132.514858 C174.992007,130.930121 175.802665,128.94296 174.589795,128.147472 C174.589795,128.147472 172.550677,126.556496 170.926241,125.764127 C170.115583,124.971759 168.890241,124.971759 168.488029,124.17939 C168.079582,123.783206 168.079582,123.380782 168.079582,122.588414 C168.079582,121.792926 168.488029,120.604373 168.890241,120.604373 C169.7009,120.201949 170.115583,120.604373 171.740018,121.390502 C173.367571,122.192229 174.992007,123.380782 176.211113,124.17939 C176.211113,124.17939 176.613324,124.971759 176.613324,124.575574 C178.243995,123.783206 178.243995,123.380782 178.243995,121.000557 C176.613324,119.007157 178.243995,118.617212 175.802665,117.026236 C174.992007,117.026236 170.517794,115.435259 170.517794,115.435259 C170.517794,114.639771 171.740018,112.65885 171.740018,112.65885 C172.148465,112.268905 172.952888,112.268905 173.367571,113.055034 C175.802665,114.639771 177.427101,114.639771 179.88402,115.435259 C180.267524,114.249826 180.267524,113.457457 179.463101,112.65885 C178.639971,111.470297 177.427101,110.269266 176.613324,109.873081 C174.992007,109.476897 174.17823,109.080713 172.952888,108.684528 C172.952888,107.492856 172.550677,106.304303 172.148465,104.713327 C172.148465,103.914719 172.952888,104.317142 173.776019,104.317142 C175.40669,103.914719 182.306643,106.304303 182.306643,106.304303 C182.306643,104.713327 181.898195,103.518535 181.081301,102.726166 C180.267524,101.927558 179.463101,101.13519 177.427101,100.345941 C174.589795,99.547333 172.148465,99.9497565 170.115583,98.7549644 C168.488029,97.1639881 168.079582,96.7678038 167.674253,95.1768275 C168.890241,94.7868823 170.926241,94.3844589 172.148465,94.3844589 C174.17823,94.3844589 175.40669,93.9882746 177.841784,94.7868823 C178.639971,95.1768275 181.495984,97.5664115 182.721326,97.5664115 C182.721326,97.5664115 181.898195,94.3844589 181.081301,93.1990255 C179.88402,93.1990255 177.841784,90.8094415 177.028007,90.4132572 C172.952888,88.8222809 172.148465,89.6208886 169.7009,90.0170729 C168.488029,90.4132572 167.278277,90.0170729 166.046699,90.0170729 C165.644488,89.2247043 166.863594,88.0299123 166.461383,87.2375437 C166.461383,86.8351202 164.824476,86.4389359 164.824476,85.6496869 C164.824476,85.6496869 171.331571,84.8510792 173.776019,85.2472635 C174.589795,85.6496869 177.028007,87.2375437 177.841784,87.2375437 C177.841784,87.2375437 178.639971,84.4486557 177.427101,82.0715499 C175.40669,81.6816048 173.367571,82.0715499 171.740018,81.6816048 C170.115583,81.2791813 168.488029,81.6816048 167.278277,81.6816048 C166.046699,81.6816048 164.824476,81.2791813 163.611605,81.2791813 C162.807183,80.0906284 162.386264,78.8927168 162.386264,77.7041639 C162.386264,77.7041639 172.550677,77.3017405 173.367571,76.9117953 C172.952888,76.5031328 172.148465,76.1194267 171.740018,75.3145799 C170.115583,72.5350506 168.890241,72.1419859 166.863594,72.1419859 C165.644488,72.1419859 162.807183,73.3274193 161.176511,72.9312349 C161.176511,69.758641 162.807183,66.9791117 165.236041,66.9791117 C170.115583,66.9791117 174.992007,68.9600333 179.054654,73.3274193 C189.225303,83.6625263 194.497703,103.12235 194.497703,117.026236 C194.497703,123.380782 193.687044,129.339145 192.879503,134.105835 C194.095491,134.508258 194.899914,134.508258 196.125256,134.508258 C197.353716,129.735329 198.566586,123.380782 198.566586,117.42242 C198.566586,97.1639881 191.245714,80.0906284 182.306643,70.5510096 L182.306643,70.5510096 Z M120.89201,54.091333 C121.719669,57.2620505 122.945483,61.2254473 123.359312,65.9659808 C123.359312,67.1627713 122.945483,68.3471275 123.359312,69.5377008 L129.068281,71.5116279 C129.068281,71.5116279 128.265702,66.7617688 127.444313,61.2254473 C126.626059,56.4786967 126.215364,54.893338 124.98955,52.9069767 C124.168161,53.3017622 123.763737,53.3017622 122.945483,53.3017622 C121.719669,53.6965476 120.89201,54.091333 120.89201,54.091333 L120.89201,54.091333 Z M134.319712,77.2033773 C135.139446,77.9872118 135.543056,79.5579667 135.952924,82.3075594 C136.359662,83.8814003 137.179397,84.2733175 137.986616,86.627907 C139.216218,85.8471584 141.256168,86.2390757 141.256168,86.2390757 C141.256168,84.2733175 140.026566,82.3075594 140.026566,81.9218141 C139.610442,81.1256357 138.396483,78.7710463 137.986616,77.9872118 C138.396483,77.9872118 139.610442,79.5579667 141.659778,79.5579667 C142.075903,79.5579667 143.302376,79.943712 144.109596,79.5579667 C144.109596,79.5579667 145.326682,80.3479731 145.326682,81.1256357 C146.143288,82.3075594 146.143288,83.0913939 146.565671,84.2733175 C147.360375,84.2733175 147.782757,84.2733175 148.186367,83.8814003 C149.81645,83.8814003 150.629927,83.4833111 150.629927,83.4833111 C150.232575,82.6994766 149.81645,81.9218141 149.81645,81.1256357 C149.406583,80.3479731 148.602492,78.379129 148.602492,78.379129 L155.933172,77.2033773 C155.933172,76.0152817 155.529562,74.4414408 154.296831,73.6576063 C150.629927,74.8457019 146.565671,75.2314472 143.699728,75.2314472 C139.610442,75.2314472 135.543056,74.4414408 129.833073,72.0930233 C129.426334,72.8737718 129.833073,74.4414408 129.833073,74.4414408 C132.279762,76.4195428 132.279762,75.2314472 134.319712,77.2033773 L134.319712,77.2033773 Z M44.3003297,11.6776539 C47.1659196,10.0658532 52.0524385,7.24046146 53.6791926,5.63498158 C54.0983946,6.44404231 58.9942987,9.26311329 61.0277413,10.4609024 C62.6544954,11.6776539 64.2906346,12.0727031 65.9173887,12.875443 C66.7338941,11.6776539 67.5410144,10.4609024 68.3669049,7.64815222 C69.5900989,8.45721295 71.2199813,8.45721295 72.4369185,8.85226214 C72.4369185,10.4609024 72.4369185,12.0727031 72.8561205,13.6908246 C72.8561205,14.4872437 73.6694976,14.0858737 75.3025084,13.2831338 C77.7457679,12.4803939 80.1890274,12.0727031 81.4184781,11.6776539 C84.259041,10.0658532 85.8951802,6.84541228 88.341568,6.84541228 C90.3875241,6.84541228 94.0539776,8.0495222 94.8736113,8.85226214 C96.0936769,9.26311329 96.9133107,9.65816248 98.139633,9.65816248 C99.7663871,9.65816248 100.989581,8.0495222 102.20339,7.24046146 C98.5431931,4.83224163 94.4763079,2.41770101 90.3875241,0.809060731 C87.9380079,2.8127502 86.3049971,4.42455087 85.0849315,4.42455087 C83.8554808,4.42455087 84.6751146,2.01633104 84.6751146,0.401369972 C83.4519207,0.401369972 82.6322869,0.401369972 81.4184781,0 C80.6113578,2.8127502 80.1890274,6.44404231 78.1555848,7.24046146 C77.3422078,7.64815222 76.9261341,7.64815222 76.522574,7.64815222 L76.522574,4.42455087 C76.522574,4.0231809 78.1555848,1.2104307 77.7457679,0.809060731 C77.7457679,0.809060731 74.0730577,1.60864028 73.2659374,2.01633104 C72.8561205,2.41770101 70.4003476,3.62813172 69.9967874,3.62813172 C69.9967874,3.62813172 68.7704651,3.22044096 68.3669049,3.22044096 C67.143711,2.41770101 66.330334,2.41770101 65.1040117,1.60864028 C63.4772576,6.44404231 63.0580556,7.64815222 63.0580556,6.84541228 C63.0580556,6.84541228 57.3487744,3.22044096 55.3215886,0.809060731 C50.0127392,1.60864028 50.0127392,2.41770101 45.526652,4.0231809 C43.8967695,5.63498158 41.4503817,7.64815222 39.8204992,10.0658532 C39.0071222,11.6776539 38.1874884,12.4803939 37.3772397,14.0858737 L41.4503817,15.6976744 C41.8601986,15.2899837 43.8967695,12.4803939 44.3003297,11.6776539 L44.3003297,11.6776539 Z M185.201286,119.599583 C186.338858,119.988469 187.103119,122.719855 187.870319,123.497626 C189.01965,125.059293 188.640459,120.772364 188.255389,119.988469 C188.255389,119.599583 188.255389,116.482374 187.491128,116.482374 C187.103119,116.087364 186.723928,114.917645 186.338858,114.534884 C185.953789,115.698479 186.338858,116.482374 186.338858,117.649031 C186.338858,118.432926 184.798579,119.204573 185.201286,119.599583 L185.201286,119.599583 Z M114.01736,38.5695383 C113.607408,38.5695383 112.36484,38.180118 110.69643,37.7906977 L108.627603,37.7906977 C109.037555,38.9650913 110.286478,40.1333523 110.69643,40.912193 C110.69643,41.3077459 110.69643,42.4821395 111.122272,43.2548476 C111.942176,43.2548476 113.184744,43.6442679 114.01736,44.0367545 C114.43049,44.0367545 116.915625,44.4323075 117.745063,45.2111482 C118.571323,45.2111482 121.463232,48.3326434 121.892252,48.7220638 C123.128464,49.507037 124.374209,50.2858777 125.194113,49.8964574 C126.026729,49.8964574 125.194113,48.7220638 125.194113,48.3326434 C123.544771,45.9899888 122.302204,41.6971662 121.892252,41.6971662 C120.646506,41.3077459 119.81389,41.6971662 118.161371,40.912193 C117.338289,40.1333523 114.846797,38.9650913 114.01736,38.5695383 L114.01736,38.5695383 Z M107.090499,29.2119455 C107.498939,30.0236667 108.294323,30.0236667 109.098919,30.4231858 C109.897373,31.2285655 110.705041,31.6312553 111.905793,32.4429766 C113.502702,34.0600775 114.304227,36.0862099 116.303434,37.6874569 C117.10496,38.0964883 117.507258,38.4991781 117.903414,38.4991781 C118.311854,38.4991781 119.908763,39.7135892 120.30799,40.1162791 C120.30799,36.885248 119.104167,34.4691089 118.311854,32.8456664 C118.311854,32.4429766 117.903414,32.0402867 117.10496,31.6312553 C115.894994,30.4231858 114.700384,29.2119455 114.304227,29.2119455 C113.106546,28.003876 112.30195,26.7958064 111.101197,25.5813953 C109.897373,25.5813953 109.098919,26.7958064 108.294323,27.1984963 C107.898167,28.003876 106.304329,28.8155972 107.090499,29.2119455 L107.090499,29.2119455 Z M105.611066,18.929196 C105.611066,20.1035165 106.021949,21.2901657 106.426652,22.4583217 C108.428545,23.6357244 110.853677,24.4186047 110.853677,24.4186047 C111.252202,23.2381198 110.439706,22.0668816 110.439706,20.8863967 C109.648834,18.1401513 108.428545,15.3969881 108.03002,12.2593026 L108.03002,10.6812132 C106.426652,9.90449728 104.801659,9.50689273 102.787409,8.72093023 C102.787409,8.72093023 102.787409,11.0788177 103.596816,12.2593026 C104.406224,14.2165033 105.611066,17.357271 105.611066,18.929196 L105.611066,18.929196 Z M191.997908,29.4448265 L190.390315,27.3911361 L194.800417,26.1627907 L196.814528,33.1395349 L191.997908,29.4448265 L191.997908,29.4448265 Z M177.301632,25.8477816 L174.904724,27.3255814 L171.701695,25.1088818 L175.300122,23.255814 L179.293947,25.8477816 L177.301632,25.8477816 L177.301632,25.8477816 Z M240.798893,103.341458 C241.2,100.965403 241.2,98.592459 241.2,97.0063494 C240.382118,96.2164046 239.150593,95.8152122 238.348379,95.8152122 C238.348379,94.6365151 237.931604,93.0535156 238.348379,91.467406 C239.150593,91.467406 240.798893,91.8623784 240.798893,91.467406 C240.798893,89.0913517 240.382118,86.7090773 239.984144,85.5272702 C239.150593,85.1260777 237.931604,84.7311054 236.703213,84.3299129 C236.703213,83.1449958 236.298973,81.9600787 235.888465,81.1701339 C237.126256,80.7689415 237.931604,80.7689415 238.746353,80.7689415 C238.746353,80.7689415 237.931604,77.20486 237.530497,75.6187504 C236.703213,75.223778 235.477956,75.223778 234.663208,75.223778 C234.255833,74.4400533 233.845325,73.6376685 233.434817,72.4527513 C234.255833,72.060889 235.079983,72.060889 235.888465,71.6659166 C235.079983,69.6848346 234.663208,68.8886698 233.845325,67.7037527 L230.993704,67.7037527 C230.589464,66.9138079 230.178956,66.1176431 230.178956,65.3339184 C230.589464,64.9233959 231.397945,64.5346436 231.811587,64.1334512 C231.397945,62.9547541 230.589464,61.7636169 229.76218,60.9736721 C228.947431,60.9736721 228.129549,61.3624245 227.3148,60.9736721 C226.910559,60.9736721 225.679035,59.3875625 226.089543,59.3875625 C226.493784,58.5913977 227.3148,58.1964254 227.725308,57.804563 C226.493784,56.2246735 226.089543,55.0335363 224.861153,54.2373715 C224.046404,54.2373715 223.237923,54.2373715 222.410639,54.6385639 C222.410639,54.6385639 221.592757,53.4412067 221.188516,53.0462343 C219.956992,53.0462343 222.006398,51.0682624 222.006398,51.0682624 C220.778008,49.4883729 219.559018,48.2972357 217.926387,46.7173461 C217.092836,46.7173461 216.278088,47.5010709 215.873847,47.5010709 C215.873847,47.5010709 214.241216,46.3161537 214.241216,45.9211813 C214.241216,45.1312366 215.873847,44.7362642 215.873847,44.7362642 C215.873847,44.7362642 213.009691,41.5671551 210.972819,40.3760179 C210.158071,40.7709903 209.75383,40.7709903 208.923413,40.7709903 C207.704423,39.5860731 206.068658,38.7961284 206.068658,38.7961284 C206.068658,38.7961284 207.300182,37.9999636 207.300182,37.6049912 C205.257043,36.416964 204.436027,35.6332393 202.803396,34.4358821 C201.167631,33.6459373 200.352882,32.4548001 199.535,31.263663 C196.680245,26.9158567 193.004475,20.5807485 184.004634,19.3896114 C184.004634,19.3896114 186.057174,22.1606381 187.285565,24.14483 C187.285565,24.5335824 187.285565,24.5335824 185.646666,24.5335824 L182.795045,24.5335824 C181.967762,23.3424452 181.563521,22.9536928 181.146746,22.1606381 C180.328863,20.5807485 179.943425,20.1795561 179.109874,19.3896114 C177.474109,18.1984742 169.304685,22.5556104 162.357385,24.14483 C164.005684,26.1196919 165.632048,27.3046091 166.036289,28.1007739 C168.079429,30.0787458 170.94045,33.6459373 172.977322,36.416964 C173.394098,36.0219917 173.804606,35.6332393 174.622488,35.2258268 C179.943425,34.4358821 179.943425,33.257185 179.943425,33.257185 C179.943425,33.257185 175.841478,30.0787458 178.693099,30.0787458 C178.693099,30.0787458 180.742505,30.4674982 181.563521,29.6868834 C183.603527,29.285691 186.057174,28.8907186 187.285565,29.6868834 C188.915062,30.8686906 189.729811,32.4548001 190.958202,33.6459373 C190.143453,33.6459373 189.331838,33.257185 188.510822,33.257185 C186.057174,32.8497725 183.603527,33.257185 181.563521,33.6459373 C181.563521,33.6459373 184.844452,36.416964 185.646666,37.6049912 C184.844452,37.2037988 182.37827,37.6049912 182.37827,37.6049912 C181.146746,37.9999636 179.520382,38.394936 179.109874,38.394936 C177.890884,38.7961284 176.656226,38.394936 175.841478,38.7961284 C177.474109,39.5860731 184.844452,42.3633199 188.510822,42.3633199 C191.779218,42.3633199 193.81609,41.9559074 196.680245,40.7709903 C197.084486,40.3760179 197.899235,39.9810455 198.309743,40.3760179 C199.948641,40.7709903 200.76339,41.1721827 201.578139,41.9559074 C212.204344,48.2972357 224.046404,63.3497264 227.725308,71.2647242 C231.397945,78.7909695 233.434817,87.1102697 233.434817,95.0252674 C233.845325,105.723732 230.178956,116.017894 222.821147,125.130249 C218.722334,130.268 210.972819,134.631356 202.803396,135.421301 C205.257043,138.195438 206.472899,142.546354 207.704423,146.511628 C207.704423,146.511628 210.568579,146.116656 212.204344,145.326711 C212.204344,142.157602 210.158071,138.59663 210.158071,137.794245 C210.158071,137.794245 212.605451,136.214356 214.651724,136.214356 C215.049697,137.399273 216.278088,139.380355 217.926387,142.157602 C219.559018,141.361437 220.778008,140.565272 222.006398,139.380355 C222.006398,137.399273 220.778008,135.026329 219.956992,132.650274 C222.821147,131.465357 224.456912,131.057945 224.456912,131.057945 C225.281062,132.249082 227.3148,133.433999 227.725308,134.631356 C227.725308,134.631356 229.76218,132.650274 230.589464,130.669192 C229.76218,129.083083 228.536923,127.895056 227.725308,126.308946 L230.993704,122.754195 C230.993704,122.754195 233.030576,124.334084 233.845325,125.130249 C235.079983,123.544139 236.298973,121.95803 236.703213,119.973838 C234.663208,117.998976 233.845325,117.998976 233.434817,116.807839 C234.255833,115.616702 234.663208,114.039922 235.477956,112.848785 C236.703213,113.249977 237.530497,114.039922 238.348379,114.428674 C239.150593,112.848785 239.984144,110.466511 239.984144,108.886621 C239.150593,108.090456 237.931604,107.701704 237.126256,106.908649 C237.530497,104.927567 237.931604,102.946485 237.931604,102.946485 C237.931604,102.946485 239.984144,103.341458 240.798893,103.341458 L240.798893,103.341458 Z"></path>
                    </g>
                </g>
            </g>
        </g>
    </g>
</svg>