<svg width="120" height="120" viewBox="0 0 120 120" fill="none" xmlns="http://www.w3.org/2000/svg">
<rect width="120" height="120" fill="#EB6F93"/>
<path d="M22.1247 48.0631C28.0351 47.4354 33.9735 47.1092 39.9174 47.0857C44.0885 47.0857 47.119 47.2222 51.2409 47.5271L53.1597 47.6715C53.8926 47.7291 54.4649 47.766 55.0209 47.8029C56.8329 47.9187 58.3686 47.9764 60.0032 47.9764C60.2818 47.9786 60.5498 47.8701 60.7484 47.6743C60.947 47.4785 61.0594 47.2122 61.0617 46.9336C61.0594 46.6539 60.9464 46.387 60.7467 46.1912C60.5475 45.9954 60.2785 45.8874 59.9993 45.8908C58.4223 45.8908 56.9275 45.8371 55.1608 45.7258C54.5471 45.6849 53.934 45.6407 53.3203 45.5937L51.4059 45.4494C47.5827 45.144 43.7484 44.994 39.9129 45.0002C33.5718 45.0254 27.239 45.3918 20.9432 46.0928C20.4101 46.147 20.0034 46.5951 20 47.1311V50.3998C20 50.5688 20.0414 50.7377 20.1236 50.8904C20.9678 52.444 21.5032 54.1379 21.7007 55.8901C21.9849 61.2975 22.5404 64.6815 24.2455 68.0739C26.7199 72.9907 31.1299 75.7689 37.8296 75.7689C49.5363 75.7773 52.9991 73.172 55.511 65.4071L55.8981 64.1954C56.7132 61.6981 57.5753 59.2159 58.4838 56.7516C59.1014 55.2881 59.5546 54.7897 59.9993 54.7897C60.2785 54.7925 60.5475 54.6845 60.7467 54.4887C60.9464 54.2934 61.0594 54.026 61.0617 53.7469C61.0594 53.4672 60.9464 53.1998 60.7467 53.0045C60.5475 52.8087 60.2785 52.7007 59.9993 52.7041C58.4139 52.7041 57.4338 53.7838 56.5196 55.96C55.5876 58.4752 54.7065 61.0094 53.8763 63.5604L53.4853 64.7721C52.3569 68.2675 51.5334 69.8087 49.7958 71.1194C47.5391 72.8134 43.8211 73.6872 37.8296 73.6833C31.9494 73.6833 28.2723 71.3667 26.1521 67.1503C24.6119 64.0919 24.0928 60.9143 23.817 55.7211C23.6022 53.7732 23.0288 51.8823 22.1247 50.1441V48.0631Z" fill="white"/>
<path d="M38.1484 70.0849H38.041C35.4945 70.1755 33.0207 69.2211 31.1936 67.4427C27.4957 63.7622 27.5534 57.6538 27.5534 57.3612C27.4639 56.4129 27.4213 55.4614 27.4258 54.5092C27.3279 53.6136 27.6004 52.7168 28.1794 52.0276C28.7656 51.33 29.6059 50.8953 30.5139 50.8198C33.0878 50.5356 37.0324 50.3996 39.6264 50.3666C46.2848 50.2922 49.9127 50.6961 51.3868 51.6528C53.384 52.926 53.1244 54.8264 51.3868 60.2462L50.9213 61.421C49.1921 67.0019 48.2204 70.0849 38.1484 70.0849ZM41.9162 52.2541L31.8274 64.636C31.6518 64.8508 31.5695 65.1283 31.6008 65.4047C31.6316 65.6805 31.7731 65.9328 31.9924 66.1034C32.4534 66.462 33.1208 66.3921 33.4872 65.9384L43.5755 53.5571C43.7517 53.3417 43.8334 53.0648 43.8026 52.7884C43.7713 52.512 43.6303 52.2603 43.411 52.0897C42.9506 51.7283 42.2865 51.8016 41.9162 52.2541ZM35.2288 51.834L29.4353 58.9399C29.2591 59.1547 29.1774 59.4316 29.2082 59.708C29.2395 59.9844 29.3805 60.2367 29.5998 60.4073C30.0613 60.7659 30.7281 60.6954 31.0946 60.2423L36.8841 53.1364C37.0603 52.9215 37.142 52.6441 37.1112 52.3677C37.0799 52.0919 36.9389 51.8396 36.7196 51.669C36.2598 51.3104 35.5991 51.3837 35.2288 51.834ZM97.8755 48.0629V50.144C96.9793 51.8631 96.407 53.7327 96.1871 55.6588C95.9113 60.9141 95.3883 64.0917 93.8526 67.1462C91.7279 71.3665 88.0463 73.6831 82.1706 73.6831C76.1875 73.6831 72.4695 72.8054 70.2128 71.103C68.4668 69.7839 67.6472 68.2427 66.5071 64.739L66.12 63.5395C65.2892 60.9913 64.4075 58.4605 63.4761 55.9475C62.5665 53.7752 61.5863 52.6911 60.0009 52.6911C59.7212 52.6883 59.4515 52.7968 59.2518 52.9931C59.0527 53.1901 58.9397 53.458 58.9385 53.7383C58.9385 54.3151 59.4163 54.7811 60.0009 54.7811C60.4496 54.7811 60.8988 55.2795 61.5164 56.743C61.936 57.7405 63.8386 63.379 63.6943 62.9667C63.8179 63.3337 63.9499 63.7085 64.0982 64.1745L64.4853 65.3694C67.0095 73.1556 70.4762 75.7687 82.1706 75.7687C88.8703 75.7687 93.2803 72.9906 95.7547 68.0737C97.4598 64.6813 98.0198 61.2973 98.3035 55.8278C98.497 54.1377 99.0324 52.4438 99.8766 50.8902C99.9577 50.7392 100 50.5708 100 50.3996V47.1309C99.9969 46.5949 99.5901 46.1468 99.057 46.0926C92.7589 45.3905 86.4279 45.0263 80.0912 45C75.8501 45 72.7699 45.1404 68.5943 45.4492L66.68 45.5936C66.0663 45.6394 65.4531 45.6819 64.8394 45.7217C63.0688 45.8369 61.5779 45.8906 60.0009 45.8906C59.7218 45.8873 59.4527 45.9952 59.2535 46.191C59.0538 46.3868 58.9408 46.6537 58.9385 46.9334C58.9385 47.5102 59.4163 47.9762 60.0009 47.9762C61.6316 47.9762 63.1673 47.9186 64.9793 47.8027C65.5354 47.7658 66.1077 47.7289 66.8405 47.6713L68.7549 47.5269C72.5249 47.226 76.3055 47.0788 80.0873 47.0856C86.029 47.1102 91.9662 47.4363 97.8755 48.0629Z" fill="white"/>
<path d="M81.8175 70.0855C71.75 70.0855 70.7738 67.0025 69.0116 61.43L68.6206 60.2099C66.8584 54.7857 66.6273 52.8981 68.6206 51.6159C70.0947 50.6353 73.7265 50.256 80.3848 50.3304C82.9873 50.3304 86.9235 50.4948 89.4929 50.7835C90.4154 50.8663 91.2596 51.3027 91.8403 52.0075C92.4221 52.7035 92.6918 53.6086 92.5855 54.5099C92.5855 55.4905 92.5855 56.4718 92.4456 57.4486C92.4456 57.6253 92.5071 63.7712 88.8093 67.4517C86.98 69.2346 84.5011 70.1907 81.9496 70.0978H81.8175V70.0855ZM75.9664 51.8347L70.173 58.9406C69.9968 59.1554 69.9151 59.4323 69.9459 59.7087C69.9772 59.985 70.1182 60.2373 70.3375 60.4079C70.799 60.7665 71.4658 60.6961 71.8323 60.2429L77.6257 53.137C77.8019 52.9222 77.8842 52.6447 77.8529 52.3684C77.8221 52.0926 77.6805 51.8403 77.4613 51.6696C77.0014 51.3088 76.3368 51.3821 75.9664 51.8347ZM82.6539 52.2548L72.5651 64.6367C72.3889 64.8515 72.3072 65.129 72.3385 65.4053C72.3693 65.6811 72.5103 65.9334 72.7301 66.1041C73.1911 66.4627 73.858 66.3927 74.2249 65.939L84.3132 53.5577C84.4894 53.3423 84.5711 53.0654 84.5403 52.7891C84.509 52.5127 84.368 52.261 84.1481 52.0903C83.6883 51.7289 83.0242 51.8022 82.6539 52.2548Z" fill="white"/>
</svg>
