<svg width="120" height="120" viewBox="0 0 120 120" fill="none" xmlns="http://www.w3.org/2000/svg">
<rect width="120" height="120" fill="#EB6F93"/>
<path d="M86.5501 81.8421L54.8026 37.5425C43.0608 46.0278 35.025 58.5946 32.3232 72.6969L86.5501 81.8421ZM30.0153 73.3838C32.6698 57.9553 41.4601 44.2087 54.4361 35.1935C54.9208 34.8568 55.5905 34.9707 55.9326 35.4481L89.7999 82.7056C90.352 83.4758 89.6842 84.5196 88.7412 84.3606L30.8934 74.6048C30.3091 74.5063 29.9162 73.9599 30.0153 73.3838Z" fill="white"/>
<path d="M58.2153 42.4129C57.9397 42.6861 57.6568 42.9888 57.2598 43.4292C57.1516 43.5492 56.7603 43.9858 56.7718 43.973C56.5747 44.1926 56.4234 44.3596 56.2744 44.5217C54.5324 46.4159 53.2974 47.2946 52.1113 47.3117C46.703 47.3999 44.0849 50.8041 44.2333 55.366C44.2439 55.6863 44.2641 55.9616 44.3014 56.3584C44.3628 57.0128 44.3715 57.1344 44.3659 57.3697C44.3392 58.4989 43.4899 59.8238 40.231 63.2944C36.2593 67.5281 36.1435 72.4534 38.4796 75.581C38.8314 76.052 39.504 76.1528 39.9818 75.806C40.4597 75.4591 40.5619 74.7962 40.21 74.3251C38.4682 71.9931 38.5574 68.1983 41.8084 64.7329C45.4135 60.8935 46.471 59.2439 46.5142 57.4192C46.5226 57.0665 46.5118 56.9168 46.4411 56.1633C46.4074 55.8047 46.39 55.5664 46.381 55.2973C46.2681 51.8255 48.0595 49.4963 52.1448 49.4297C54.1324 49.401 55.7385 48.2583 57.8664 45.9444C58.0222 45.775 58.1787 45.6022 58.381 45.3768C58.3713 45.3876 58.7604 44.9536 58.8662 44.8362C59.2386 44.4231 59.4982 44.1452 59.739 43.9065C60.1574 43.4917 60.1555 42.8211 59.7348 42.4087C59.314 41.9962 58.6337 41.9981 58.2153 42.4129Z" fill="white"/>
<path d="M55.8345 77.8746C57.3069 74.4717 60.8672 72.4214 64.5975 72.8281C68.3279 73.2349 71.3474 76.0027 72.0298 79.6406C72.0914 79.9684 72.1333 80.299 72.1554 80.6312C72.1943 81.2149 72.7058 81.657 73.2979 81.6187C73.89 81.5804 74.3385 81.0762 74.2997 80.4925C74.272 80.0774 74.2196 79.6642 74.1428 79.2551C73.2882 74.6989 69.5061 71.2322 64.8338 70.7228C60.1614 70.2133 55.7022 72.7813 53.8579 77.0436C53.6251 77.5816 53.8788 78.2038 54.4247 78.4333C54.9705 78.6628 55.6017 78.4127 55.8345 77.8746Z" fill="white"/>
<path d="M52.1818 68.3146C49.1296 67.7315 45.9791 68.6308 43.715 70.7312C43.2829 71.132 43.2623 71.8023 43.669 72.2283C44.0756 72.6542 44.7556 72.6746 45.1877 72.2737C46.9487 70.64 49.3991 69.9407 51.773 70.3941C52.3556 70.5054 52.9194 70.1301 53.0323 69.5558C53.1451 68.9816 52.7644 68.4259 52.1818 68.3146Z" fill="white"/>
<path d="M66.9401 64.7224C67.9403 67.6268 70.2973 69.8794 73.2732 70.775C73.8407 70.9458 74.4413 70.6307 74.6146 70.0713C74.7878 69.5118 74.4682 68.9199 73.9007 68.7491C71.586 68.0525 69.7529 66.3005 68.9749 64.0415C68.7842 63.4876 68.1741 63.191 67.6122 63.379C67.0503 63.567 66.7494 64.1685 66.9401 64.7224Z" fill="white"/>
<path d="M57.4887 66.8297C53.1845 66.8297 49.6953 63.3902 49.6953 59.1474C49.6953 54.9046 53.1845 51.4651 57.4887 51.4651C61.7929 51.4651 65.2821 54.9046 65.2821 59.1474C65.2821 63.3902 61.7929 66.8297 57.4887 66.8297ZM57.4887 64.7115C60.6061 64.7115 63.1333 62.2204 63.1333 59.1474C63.1333 56.0744 60.6061 53.5833 57.4887 53.5833C54.3713 53.5833 51.8442 56.0744 51.8442 59.1474C51.8442 62.2204 54.3713 64.7115 57.4887 64.7115Z" fill="white"/>
</svg>
