<svg width="120" height="120" viewBox="0 0 120 120" fill="none" xmlns="http://www.w3.org/2000/svg">
<rect width="120" height="120" rx="24" fill="black"/>
<path d="M44 84C57.2548 84 68 73.2548 68 60C68 46.7452 57.2548 36 44 36C30.7452 36 20 46.7452 20 60C20 73.2548 30.7452 84 44 84Z" fill="#E7001A"/>
<path d="M76 84C89.2548 84 100 73.2548 100 60C100 46.7452 89.2548 36 76 36C62.7452 36 52 46.7452 52 60C52 73.2548 62.7452 84 76 84Z" fill="#F49B1C"/>
<path opacity="0.3" fill-rule="evenodd" clip-rule="evenodd" d="M60 42.1111C55.09 46.5057 52 52.892 52 60C52 67.108 55.09 73.4943 60 77.8888C64.91 73.4943 68 67.108 68 60C68 52.892 64.91 46.5057 60 42.1111Z" fill="#E7001A"/>
</svg>
