<?xml version="1.0" encoding="UTF-8"?>
<svg width="120px" height="120px" viewBox="0 0 120 120" version="1.1" xmlns="http://www.w3.org/2000/svg" xmlns:xlink="http://www.w3.org/1999/xlink">
    <!-- Generator: Sketch 51.2 (57519) - http://www.bohemiancoding.com/sketch -->
    <title>paypal</title>
    <desc>Created with Sketch.</desc>
    <defs></defs>
    <g id="master" stroke="none" stroke-width="1" fill="none" fill-rule="evenodd">
        <g id="payments" transform="translate(-110.000000, -2873.000000)">
            <g id="paypal" transform="translate(110.000000, 2873.000000)">
                <rect id="Rectangle-15" fill="#0086E6" x="0" y="0" width="120" height="120" rx="28"></rect>
                <path d="M80.8183481,46.524467 C81.5663887,41.7707836 80.8133528,38.5369346 78.2339238,35.6068034 C75.3941167,32.3816676 70.2639815,31 63.7002057,31 L44.6470233,31 C43.3057951,31 42.1631287,31.9727687 41.9545764,33.2940661 L34.0202253,83.4398871 C33.8641234,84.4294598 34.6315207,85.3238095 35.6355686,85.3238095 L47.3981644,85.3238095 L46.5864342,90.4552732 C46.4496888,91.3209938 47.1203029,92.1033164 47.9994692,92.1033164 L57.9144422,92.1033164 C59.0877046,92.1033164 60.0867572,91.2525328 60.2697087,90.0967865 L60.3671164,89.5939093 L62.2347204,77.7887421 L62.3552311,77.1364954 C62.5381826,75.9813715 63.5372352,75.1293431 64.7104977,75.1293431 L66.1934664,75.1293431 C75.798733,75.1293431 83.3197261,71.2401355 85.5170175,59.9913696 C86.4355215,55.2912102 85.9603471,51.3677721 83.5320248,48.6094159 C82.7983455,47.7766811 81.8842124,47.087092 80.8183481,46.524467" id="Combined-Shape" fill="#ADD8F6" fill-rule="nonzero"></path>
                <path d="M80.8183481,46.524467 C81.5663887,41.7707836 80.8133528,38.5369346 78.2339238,35.6068034 C75.3941167,32.3816676 70.2639815,31 63.7002057,31 L44.6470233,31 C43.3057951,31 42.1631287,31.9727687 41.9545764,33.2940661 L34.0202253,83.4398871 C33.8641234,84.4294598 34.6315207,85.3238095 35.6355686,85.3238095 L47.3981644,85.3238095 L50.3528626,66.648269 L50.2610746,67.2339218 C50.4702513,65.9132468 51.6023028,64.9398557 52.9441553,64.9398557 L58.5351036,64.9398557 C69.514692,64.9398557 78.1121643,60.4936244 80.6235328,47.6354025 C80.6984618,47.2557551 80.761527,46.886688 80.8183481,46.524467" id="Shape" fill="#FFFFFF" opacity="0.68"></path>
                <path d="M53.5273523,46.5873267 C53.6528583,45.793179 54.1648728,45.1421771 54.8535947,44.8135642 C55.166423,44.6641947 55.5167159,44.5807968 55.8832433,44.5807968 L70.8184557,44.5807968 C72.5880277,44.5807968 74.2377133,44.6965581 75.7456584,44.9386611 C76.1764998,45.0077445 76.5961019,45.0874082 77.0038403,45.1776523 C77.4109542,45.2678964 77.8068288,45.3680984 78.1895909,45.4801255 C78.3812841,45.5355167 78.5692309,45.5946421 78.75468,45.6556346 C79.4952278,45.9008495 80.1851985,46.1896305 80.8195969,46.5250894 C81.5676376,41.771406 80.8146016,38.5375569 78.2351726,35.6074258 C75.3941167,32.3816676 70.2639815,31 63.7002057,31 L44.6470233,31 C43.3057951,31 42.1631287,31.9727687 41.9545764,33.2940661 L34.0202253,83.4398871 C33.8641234,84.4294598 34.6315207,85.3238095 35.6355686,85.3238095 L47.3981644,85.3238095 L50.3528626,66.648269 L53.5273523,46.5873267 Z" id="Shape" fill="#F6FAFE"></path>
            </g>
        </g>
    </g>
</svg>