<?xml version="1.0" encoding="UTF-8"?>
<svg width="120px" height="120px" viewBox="0 0 120 120" version="1.1" xmlns="http://www.w3.org/2000/svg" xmlns:xlink="http://www.w3.org/1999/xlink">
    <!-- Generator: Sketch 51.2 (57519) - http://www.bohemiancoding.com/sketch -->
    <title>belfius copy 2</title>
    <desc>Created with Sketch.</desc>
    <defs></defs>
    <g id="master" stroke="none" stroke-width="1" fill="none" fill-rule="evenodd">
        <g id="payments" transform="translate(-535.000000, -3413.000000)">
            <g id="belfius-copy-2" transform="translate(535.000000, 3413.000000)">
                <rect id="Rectangle-15" fill="#A4E3FF" x="0" y="0" width="120" height="120" rx="33.6"></rect>
                <path d="M43.6718163,49.6183492 C42.5002088,50.1313796 41.5039666,50.7988254 40.6313152,51.5422132 C40.5995825,50.5634052 40.6179541,49.6276311 40.6772443,48.7289841 C41.1173278,38.3249305 49.5782881,30 59.9716075,30 C70.0634655,30 78.3440501,37.8304637 79.223382,47.8075545 C79.3695199,48.9568101 79.4212943,50.1777886 79.3661795,51.4468638 C77.9933194,50.150787 76.2304802,49.2791417 74.0993737,48.8707425 C72.7331941,42.2688516 66.9411273,37.3089953 60,37.3089953 C53.0597077,37.3089953 47.2734864,42.2629449 45.9039666,48.8648359 C45.1607516,49.0276893 44.4150313,49.2867359 43.6718163,49.6183492 Z M71.2810021,51.09829 C77.2609603,51.1497618 80.3056367,54.4540825 80.4,61.0171587 L80.4,80.0760685 C80.3056367,86.6323943 77.2609603,89.9459968 71.2810021,90 L48.1235908,90 C47.0087683,90 45.8530271,89.7350467 44.6638831,89.2085156 C43.5181628,88.696329 42.5762004,88.0871054 41.8254697,87.3437176 C40.3849687,85.6071774 39.6492693,83.0580576 39.6,79.6929833 L39.6,61.4002439 C39.6492693,58.0427638 40.3849687,55.4885813 41.8254697,53.7444467 C42.5762004,53.0145597 43.5181628,52.4011172 44.6638831,51.8973686 C45.8530271,51.3590242 47.0087683,51.09829 48.1235908,51.09829 L71.2810021,51.09829 Z" id="Combined-Shape" fill="#ED1C24" fill-rule="nonzero"></path>
            </g>
        </g>
    </g>
</svg>