<?xml version="1.0" encoding="UTF-8"?>
<svg width="120px" height="120px" viewBox="0 0 120 120" version="1.1" xmlns="http://www.w3.org/2000/svg" xmlns:xlink="http://www.w3.org/1999/xlink">
    <!-- Generator: Sketch 51.2 (57519) - http://www.bohemiancoding.com/sketch -->
    <title>banktransfer</title>
    <desc>Created with Sketch.</desc>
    <defs></defs>
    <g id="master" stroke="none" stroke-width="1" fill="none" fill-rule="evenodd">
        <g id="payments" transform="translate(-960.000000, -2873.000000)">
            <g id="banktransfer" transform="translate(960.000000, 2873.000000)">
                <rect id="Rectangle-15" fill="#0069CC" x="0" y="0" width="120" height="120" rx="33.6"></rect>
                <g id="Group-7" transform="translate(16.000000, 48.000000)">
                    <path d="M20.0171099,7.85006827 L14.0987046,7.85006827 C14.0987046,6.87561751 13.9848615,6.22195583 13.7577489,5.88908322 C13.405323,5.39624763 12.4334989,5.14968598 10.8425637,5.14968598 C9.29722302,5.14968598 8.27320901,5.29152366 7.77338922,5.57548673 C7.2738562,5.8603129 7.02351617,6.4797379 7.02351617,7.43347403 C7.02351617,8.29687135 7.24518037,8.86537288 7.68908227,9.13782782 C8.00681051,9.33116437 8.42719823,9.44480714 8.95081895,9.47875612 L10.1443072,9.56334086 C12.7021915,9.73366116 14.2997222,9.85363339 14.9368992,9.92210675 C16.9599793,10.1266637 18.4261747,10.6661072 19.3363456,11.5410127 C20.0520944,12.223157 20.4790776,13.1150369 20.6155746,14.2163648 C20.6950066,14.8752051 20.734866,15.6209318 20.734866,16.4492294 C20.734866,18.3581401 20.5530612,19.7563777 20.1897384,20.6425036 C19.5307678,22.2683144 18.0505212,23.2954149 15.7469915,23.726682 C14.7820497,23.9087981 13.3061046,24 11.3205898,24 C8.00595024,24 5.69639859,23.8020602 4.39222168,23.4041667 C2.79153665,22.9167974 1.73626597,21.9296877 1.22554937,20.4428376 C0.941085102,19.6151154 0.8,18.2367294 0.8,16.307104 L6.71811855,16.307104 C6.71811855,16.522306 6.71897882,16.6865845 6.71897882,16.7999396 C6.71897882,17.8299171 7.01376639,18.4919221 7.60276801,18.7871056 C8.01082513,18.9905118 8.50347595,19.0972497 9.08244103,19.1099086 L11.2583633,19.1099086 C12.3684048,19.1099086 13.0772714,19.0526557 13.382669,18.9381498 C13.9269364,18.7235232 14.2839505,18.3782794 14.4545717,17.9001166 C14.5451873,17.6055086 14.5899216,17.2245895 14.5899216,16.7585103 C14.5899216,15.7144354 14.2102536,15.0791867 13.451491,14.8513258 C13.167887,14.7612747 11.8485119,14.6358361 9.49307897,14.4767362 C7.60133422,14.341228 6.28740753,14.2108984 5.55187239,14.0845967 C3.61424631,13.7212276 2.32297352,12.9731992 1.67862754,11.8379224 C1.11199307,10.8732536 0.828962592,9.41373519 0.828962592,7.46138124 C0.828962592,5.97453107 0.981804785,4.78228899 1.28806269,3.8855181 C1.59432059,2.98874721 2.08783169,2.30746602 2.76888274,1.84196223 C3.76651499,1.12673206 5.04287635,0.706973087 6.59681977,0.581534489 C7.89009987,0.468467129 9.32446507,0.410638785 10.9022094,0.410638785 C13.3861101,0.410638785 15.1562694,0.554202685 16.21154,0.837878045 C18.7869167,1.53239358 20.0741748,3.47697955 20.0741748,6.67221135 C20.0741748,6.93430897 20.0552488,7.32644844 20.0171099,7.85006827" id="Combined-Shape" fill="#FFFFFF"></path>
                    <path d="M45.8210588,23.8374477 L45.8210588,0.12293558 L55.0928161,0.12293558 L56.5481147,0.12293558 L57.6730676,0.12293558 C59.2987006,0.12293558 60.5392172,0.256142164 61.391463,0.522267629 C63.3408461,1.13507546 64.6487509,2.38974913 65.3189051,4.28600096 C65.6644489,5.28116635 65.8373642,6.77952464 65.8373642,8.78021273 C65.8373642,11.1856992 65.6455229,12.9145078 65.2661416,13.9669261 C64.5059453,16.0481711 62.9413918,17.2470304 60.5782163,17.5577498 C60.3006343,17.6043577 59.1183296,17.6460747 57.0313025,17.6794483 L55.9754583,17.7148358 L52.1825058,17.7148358 L52.1825058,23.8374477 L45.8210588,23.8374477 Z M52.1825058,12.2136628 L56.1483735,12.2136628 C57.4058088,12.1682057 58.1705933,12.070962 58.4458813,11.9193424 C58.8218215,11.7119084 59.0741688,11.296465 59.199769,10.6738752 C59.2800613,10.2592949 59.3202075,9.64274694 59.3202075,8.82423132 C59.3202075,7.82101025 59.2404887,7.07758516 59.0801908,6.59222986 C58.8513576,5.91209948 58.3033624,5.49780686 57.435345,5.34733809 C57.2638635,5.32460953 56.8529388,5.312526 56.2019974,5.312526 L52.1825058,5.312526 L52.1825058,12.2136628 Z" id="Combined-Shape" fill="#FFFFFF"></path>
                    <path d="M79.5429789,19.7394032 L71.0377266,19.7394032 L69.8949947,23.8377354 L63.3133173,23.8377354 L70.4148875,0.12293558 L80.0112553,0.12293558 L87.2,23.8377354 L80.7568269,23.8377354 L79.5429789,19.7394032 Z M78.2798084,15.1191775 L75.2989555,4.83954193 L72.4067109,15.1191775 L78.2798084,15.1191775 Z" id="Fill-7" fill="#FFFFFF"></path>
                    <path d="M37.3043362,3.12531992 C39.9278882,3.12531992 42.2695568,4.33798893 43.8091623,6.23740549 L45.1804407,3.28758453 C43.0354883,1.25381057 40.116862,0 36.8974261,0 C31.8848904,0 27.5967063,3.03728274 25.8371571,7.33671944 L23.1631356,7.33671944 L21.5842442,10.7327681 L25.0241972,10.7327681 C24.998389,11.0478031 24.9814702,11.3631258 24.9814702,11.684778 C24.9814702,12.0740404 25.0018301,12.4586996 25.0399689,12.8387555 L23.3113897,12.8387555 L21.732785,16.235955 L25.91917,16.235955 C27.7289019,20.4266399 31.9634622,23.3686929 36.8974261,23.3686929 C39.3839077,23.3686929 41.6911653,22.6212399 43.6015493,21.3444131 L43.6015493,17.18106 C42.0630908,18.9383512 39.8128982,20.0488856 37.3043362,20.0488856 C34.3716587,20.0488856 31.7922675,18.5318266 30.2905141,16.235955 L39.0567164,16.235955 L40.6356078,12.8387555 L29.0006751,12.8387555 C28.9407426,12.4299293 28.9086257,12.0121842 28.9086257,11.5866712 C28.9086257,11.298968 28.9232503,11.0141418 28.9510659,10.7327681 L41.6140273,10.7327681 L43.1926319,7.33671944 L30.0459092,7.33671944 C31.5000607,4.81931639 34.2053389,3.12531992 37.3043362,3.12531992" id="Fill-10" fill="#FEC10E"></path>
                </g>
            </g>
        </g>
    </g>
</svg>