<svg width="240" height="240" viewBox="0 0 240 240" fill="none" xmlns="http://www.w3.org/2000/svg">
<circle cx="120" cy="120" r="120" fill="#FF9500"/>
<path fill-rule="evenodd" clip-rule="evenodd" d="M138.981 76C130.936 76 123.121 75.9994 116.118 79.4332C109.12 82.8671 102.938 89.74 98.1806 103.486C97.1495 106.441 96.6042 108.987 96.5327 111.197C96.4613 113.413 96.8596 115.297 97.7273 116.935C98.7992 118.933 100.535 120.813 102.704 122.397C104.879 123.986 107.476 125.274 110.278 126.098C110.386 126.127 111.856 126.532 113.643 127.025C115.419 127.519 117.496 128.11 118.813 128.495C119.584 128.722 120.431 129.018 121.196 129.467C121.967 129.906 122.657 130.498 123.091 131.317C123.376 131.86 123.53 132.457 123.545 133.093C123.566 133.735 123.453 134.426 123.192 135.156C122.539 137.021 121.549 138.225 119.66 138.96C117.782 139.695 115.01 139.931 110.804 139.961H58.2997L50 162H106.2C111.488 162 121.156 162.001 130.446 158.182C139.736 154.368 148.649 146.745 152.421 131.485C153.84 125.752 153.401 121.08 151.078 117.409C148.746 113.743 144.529 111.079 138.389 109.377C138.389 109.377 137.016 108.991 135.398 108.542C133.79 108.093 131.927 107.581 130.977 107.314C129.405 106.88 128.195 106.002 127.481 104.882C126.771 103.767 126.557 102.41 126.96 101.023C127.384 99.5828 128.405 98.4332 129.875 97.6389C131.355 96.8494 133.295 96.4155 135.561 96.4155H168.229C168.459 96.0948 168.668 95.745 168.898 95.4243C174.865 87.2638 182.088 80.6624 190 76H138.981V76Z" fill="white"/>
</svg>
