<?xml version="1.0" encoding="UTF-8"?>
<svg width="120px" height="120px" viewBox="0 0 120 120" version="1.1" xmlns="http://www.w3.org/2000/svg" xmlns:xlink="http://www.w3.org/1999/xlink">
    <!-- Generator: Sketch 51.2 (57519) - http://www.bohemiancoding.com/sketch -->
    <title>visa copy</title>
    <desc>Created with Sketch.</desc>
    <defs>
        <path d="M61.3316135,65.0485401 C61.2816047,61.1482239 64.845386,58.9715455 67.5300661,57.6775153 C70.2884433,56.3496373 71.2149212,55.4982332 71.204393,54.3109541 C71.1833367,52.4935838 69.0040081,51.6916496 66.9641776,51.6604054 C63.4056605,51.6057281 61.3368775,52.6107495 59.691853,53.3710247 L58.4100498,47.4372327 C60.0603385,46.6847685 63.1161361,46.0286405 66.2851115,46 C73.7232546,46 78.5898954,49.6321369 78.6162158,55.2639018 C78.6451682,62.4110099 68.6223624,62.8067696 68.6907954,66.0014878 C68.7144838,66.9700577 69.6488578,68.0037195 71.6965844,68.2666915 C72.7099195,68.3994793 75.5077773,68.5010229 78.6793847,67.0559792 L79.9243393,72.7970988 C78.2187778,73.4115678 76.0262891,74 73.2968643,74 C66.2956396,74 61.371094,70.3183932 61.3316135,65.0485401 M91.8869581,73.5053004 C90.5288258,73.5053004 89.3838887,72.721592 88.8732731,71.5186907 L78.2477303,46.4217965 L85.6806093,46.4217965 L87.1598154,50.4653152 L96.2429832,50.4653152 L97.101028,46.4217965 L103.652174,46.4217965 L97.9353845,73.5053004 L91.8869581,73.5053004 M92.9266136,66.1889529 L95.0717257,56.0189697 L89.1970139,56.0189697 L92.9266136,66.1889529 M52.3195108,73.5053004 L46.4605912,46.4217965 L53.5434091,46.4217965 L59.3996966,73.5053004 L52.3195108,73.5053004 M41.8413622,73.5053004 L34.46902,55.0712293 L31.4869194,70.7453971 C31.1368582,72.4950716 29.7550376,73.5053004 28.2205586,73.5053004 L16.1684505,73.5053004 L16,72.7189883 C18.474117,72.1878371 21.285135,71.3312256 22.9880644,70.4147294 C24.030352,69.8549377 24.3277725,69.3654454 24.6699376,68.0349637 L30.318294,46.4217965 L37.8038138,46.4217965 L49.2795053,73.5053004 L41.8413622,73.5053004" id="path-1"></path>
    </defs>
    <g id="master" stroke="none" stroke-width="1" fill="none" fill-rule="evenodd">
        <g id="payments" transform="translate(-1051.000000, -2522.000000)">
            <g id="visa-copy" transform="translate(1051.000000, 2522.000000)">
                <rect id="Rectangle-15" fill="#1A17E6" x="0" y="0" width="120" height="120" rx="28"></rect>
                <mask id="mask-2" fill="white">
                    <use xlink:href="#path-1"></use>
                </mask>
                <use id="path10273" fill="#FFFFFF" transform="translate(59.826087, 60.000000) scale(1, -1) translate(-59.826087, -60.000000) " xlink:href="#path-1"></use>
            </g>
        </g>
    </g>
</svg>